STARTFONT 2.1
FONT -gumix-asciicker-medium-r-normal--36-120-72-72-c-120-iso10646-1
SIZE 36 72 72
FONTBOUNDINGBOX 36 36 0 0
STARTPROPERTIES 23
ADD_STYLE_NAME ""
AVERAGE_WIDTH 120
CHARSET_ENCODING "1"
CHARSET_REGISTRY "ISO10646"
COPYRIGHT "gumix"
FAMILY_NAME "asciicker"
FOUNDRY "gumix"
MIN_SPACE 36
NOTICE "Licensed"
PIXEL_SIZE 36
POINT_SIZE 120
QUAD_WIDTH 36
RESOLUTION_X 72
RESOLUTION_Y 72
SETWIDTH_NAME "Normal"
SLANT "R"
SPACING "M"
WEIGHT 10
WEIGHT_NAME "Bold"
X_HEIGHT 10
DEFAULT_CHAR 33
FONT_DESCENT 0
FONT_ASCENT 36
ENDPROPERTIES
CHARS 256
STARTCHAR U+0000
ENCODING 0
SWIDTH 500 0
DWIDTH 36 0
BBX 36 36 0 0
BITMAP
0000000000
0000000000
0000000000
0000000000
0000000000
0000000000
0000000000
0000000000
0000000000
0000000000
0000000000
0000000000
0000000000
0000000000
0000000000
0000000000
0000000000
0000000000
0000000000
0000000000
0000000000
0000000000
0000000000
0000000000
0000000000
0000000000
0000000000
0000000000
0000000000
0000000000
0000000000
0000000000
0000000000
0000000000
0000000000
0000000000
ENDCHAR
STARTCHAR U+263A
ENCODING 9786
SWIDTH 500 0
DWIDTH 36 0
BBX 36 36 0 0
BITMAP
0000000000
0000000000
003FFFC000
003FFFC000
00FFFFF000
00FFFFF000
03C0003C00
03C0003C00
0F00000F00
0F00000F00
0F00000F00
0F00000F00
0F0F0F0F00
0F0F0F0F00
0F0F0F0F00
0F0F0F0F00
0F00000F00
0F00000F00
0F00000F00
0F00000F00
0F0FFF0F00
0F0FFF0F00
0F03FC0F00
0F03FC0F00
0F00F00F00
0F00F00F00
0F00000F00
0F00000F00
03C0003C00
03C0003C00
00FFFFF000
00FFFFF000
003FFFC000
003FFFC000
0000000000
0000000000
ENDCHAR
STARTCHAR U+263B
ENCODING 9787
SWIDTH 500 0
DWIDTH 36 0
BBX 36 36 0 0
BITMAP
0000000000
0000000000
003FFFC000
003FFFC000
00FFFFF000
00FFFFF000
03FFFFFC00
03FFFFFC00
0FFFFFFF00
0FFFFFFF00
0FFFFFFF00
0FFFFFFF00
0FF0F0FF00
0FF0F0FF00
0FF0F0FF00
0FF0F0FF00
0FFFFFFF00
0FFFFFFF00
0FFFFFFF00
0FFFFFFF00
0FF000FF00
0FF000FF00
0FFC03FF00
0FFC03FF00
0FFF0FFF00
0FFF0FFF00
0FFFFFFF00
0FFFFFFF00
03FFFFFC00
03FFFFFC00
00FFFFF000
00FFFFF000
003FFFC000
003FFFC000
0000000000
0000000000
ENDCHAR
STARTCHAR U+2665
ENCODING 9829
SWIDTH 500 0
DWIDTH 36 0
BBX 36 36 0 0
BITMAP
0000000000
0000000000
0000000000
0000000000
00FC03F000
00FC03F000
03FF0FFC00
03FF0FFC00
0FFFFFFF00
0FFFFFFF00
0FFFFFFF00
0FFFFFFF00
0FFFFFFF00
0FFFFFFF00
0FFFFFFF00
0FFFFFFF00
0FFFFFFF00
0FFFFFFF00
03FFFFFC00
03FFFFFC00
03FFFFFC00
03FFFFFC00
00FFFFF000
00FFFFF000
003FFFC000
003FFFC000
000FFF0000
000FFF0000
0003FC0000
0003FC0000
0000F00000
0000F00000
0000000000
0000000000
0000000000
0000000000
ENDCHAR
STARTCHAR U+2666
ENCODING 9830
SWIDTH 500 0
DWIDTH 36 0
BBX 36 36 0 0
BITMAP
0000000000
0000000000
0000F00000
0000F00000
0003FC0000
0003FC0000
000FFF0000
000FFF0000
003FFFC000
003FFFC000
00FFFFF000
00FFFFF000
03FFFFFC00
03FFFFFC00
0FFFFFFF00
0FFFFFFF00
3FFFFFFFC0
3FFFFFFFC0
3FFFFFFFC0
3FFFFFFFC0
0FFFFFFF00
0FFFFFFF00
03FFFFFC00
03FFFFFC00
00FFFFF000
00FFFFF000
003FFFC000
003FFFC000
000FFF0000
000FFF0000
0003FC0000
0003FC0000
0000F00000
0000F00000
0000000000
0000000000
ENDCHAR
STARTCHAR U+2663
ENCODING 9827
SWIDTH 500 0
DWIDTH 36 0
BBX 36 36 0 0
BITMAP
0000000000
0000000000
0000FC0000
0000FC0000
0003FF0000
0003FF0000
000FFFC000
000FFFC000
000FFFC000
000FFFC000
000FFFC000
000FFFC000
0003FF0000
0003FF0000
03F0FC3F00
03F0FC3F00
0FFCFCFFC0
0FFCFCFFC0
3FFFFFFFF0
3FFFFFFFF0
3FFFFFFFF0
3FFFFFFFF0
3FFFFFFFF0
3FFFFFFFF0
0FFCFCFFC0
0FFCFCFFC0
03F0FC3F00
03F0FC3F00
0000FC0000
0000FC0000
0003FF0000
0003FF0000
003FFFF000
003FFFF000
0000000000
0000000000
ENDCHAR
STARTCHAR U+2660
ENCODING 9824
SWIDTH 500 0
DWIDTH 36 0
BBX 36 36 0 0
BITMAP
0000000000
0000000000
0000F00000
0000F00000
0003FC0000
0003FC0000
000FFF0000
000FFF0000
003FFFC000
003FFFC000
00FFFFF000
00FFFFF000
03FFFFFC00
03FFFFFC00
0FFFFFFF00
0FFFFFFF00
0FFFFFFF00
0FFFFFFF00
3FFFFFFFC0
3FFFFFFFC0
3FFFFFFFC0
3FFFFFFFC0
3FFFFFFFC0
3FFFFFFFC0
0FFCF3FF00
0FFCF3FF00
03F0F0FC00
03F0F0FC00
0000F00000
0000F00000
0003FC0000
0003FC0000
003FFFC000
003FFFC000
0000000000
0000000000
ENDCHAR
STARTCHAR U+2022
ENCODING 8226
SWIDTH 500 0
DWIDTH 36 0
BBX 36 36 0 0
BITMAP
0000000000
0000000000
0000000000
0000000000
0000000000
0000000000
0000000000
0000000000
0003FC0000
0003FC0000
000FFF0000
000FFF0000
003FFFC000
003FFFC000
00FFFFF000
00FFFFF000
00FFFFF000
00FFFFF000
00FFFFF000
00FFFFF000
00FFFFF000
00FFFFF000
003FFFC000
003FFFC000
000FFF0000
000FFF0000
0003FC0000
0003FC0000
0000000000
0000000000
0000000000
0000000000
0000000000
0000000000
0000000000
0000000000
ENDCHAR
STARTCHAR U+25D8
ENCODING 9688
SWIDTH 500 0
DWIDTH 36 0
BBX 36 36 0 0
BITMAP
FFFFFFFFF0
FFFFFFFFF0
FFFFFFFFF0
FFFFFFFFF0
FFFFFFFFF0
FFFFFFFFF0
FFFFFFFFF0
FFFFFFFFF0
FFFC03FFF0
FFFC03FFF0
FFF000FFF0
FFF000FFF0
FFC0003FF0
FFC0003FF0
FF00000FF0
FF00000FF0
FF00000FF0
FF00000FF0
FF00000FF0
FF00000FF0
FF00000FF0
FF00000FF0
FFC0003FF0
FFC0003FF0
FFF000FFF0
FFF000FFF0
FFFC03FFF0
FFFC03FFF0
FFFFFFFFF0
FFFFFFFFF0
FFFFFFFFF0
FFFFFFFFF0
FFFFFFFFF0
FFFFFFFFF0
FFFFFFFFF0
FFFFFFFFF0
ENDCHAR
STARTCHAR U+25CB
ENCODING 9675
SWIDTH 500 0
DWIDTH 36 0
BBX 36 36 0 0
BITMAP
0000000000
0000000000
0000000000
0000000000
003FFFC000
003FFFC000
00FFFFF000
00FFFFF000
03FFFFFC00
03FFFFFC00
03FFFFFC00
03FFFFFC00
03F000FC00
03F000FC00
03C0003C00
03C0003C00
03C0003C00
03C0003C00
03C0003C00
03C0003C00
03C0003C00
03C0003C00
03F000FC00
03F000FC00
03FFFFFC00
03FFFFFC00
03FFFFFC00
03FFFFFC00
00FFFFF000
00FFFFF000
003FFFC000
003FFFC000
0000000000
0000000000
0000000000
0000000000
ENDCHAR
STARTCHAR U+25D9
ENCODING 9689
SWIDTH 500 0
DWIDTH 36 0
BBX 36 36 0 0
BITMAP
FFFFFFFFF0
FFFFFFFFF0
FFFFFFFFF0
FFFFFFFFF0
FFC0003FF0
FFC0003FF0
FF00000FF0
FF00000FF0
FC000003F0
FC000003F0
FC000003F0
FC000003F0
FC0FFF03F0
FC0FFF03F0
FC3FFFC3F0
FC3FFFC3F0
FC3FFFC3F0
FC3FFFC3F0
FC3FFFC3F0
FC3FFFC3F0
FC3FFFC3F0
FC3FFFC3F0
FC0FFF03F0
FC0FFF03F0
FC000003F0
FC000003F0
FC000003F0
FC000003F0
FF00000FF0
FF00000FF0
FFC0003FF0
FFC0003FF0
FFFFFFFFF0
FFFFFFFFF0
FFFFFFFFF0
FFFFFFFFF0
ENDCHAR
STARTCHAR U+2642
ENCODING 9794
SWIDTH 500 0
DWIDTH 36 0
BBX 36 36 0 0
BITMAP
0000000000
0000000000
0003FFFC00
0003FFFC00
00003FFC00
00003FFC00
00000FFC00
00000FFC00
0000FF3C00
0000FF3C00
0003F00C00
0003F00C00
003FC00000
003FC00000
00FFFF0000
00FFFF0000
03FFFFC000
03FFFFC000
0FF00FF000
0FF00FF000
0FF00FF000
0FF00FF000
0FF00FF000
0FF00FF000
0FF00FF000
0FF00FF000
0FF00FF000
0FF00FF000
03FFFFC000
03FFFFC000
00FFFF0000
00FFFF0000
0000000000
0000000000
0000000000
0000000000
ENDCHAR
STARTCHAR U+2640
ENCODING 9792
SWIDTH 500 0
DWIDTH 36 0
BBX 36 36 0 0
BITMAP
0000000000
0000000000
003FFFC000
003FFFC000
00FFFFF000
00FFFFF000
03FC03FC00
03FC03FC00
03FC03FC00
03FC03FC00
03FC03FC00
03FC03FC00
03FC03FC00
03FC03FC00
03FC03FC00
03FC03FC00
00FFFFF000
00FFFFF000
003FFFC000
003FFFC000
0003FC0000
0003FC0000
03FFFFFC00
03FFFFFC00
03FFFFFC00
03FFFFFC00
0003FC0000
0003FC0000
0003FC0000
0003FC0000
0003FC0000
0003FC0000
0000000000
0000000000
0000000000
0000000000
ENDCHAR
STARTCHAR U+266A
ENCODING 9834
SWIDTH 500 0
DWIDTH 36 0
BBX 36 36 0 0
BITMAP
0000000000
0000000000
0003FFF000
0003FFF000
0003FFFF00
0003FFFF00
0003FC0FC0
0003FC0FC0
0003FC0000
0003FC0000
0003FFF000
0003FFF000
0003FFFF00
0003FFFF00
0003FC0FC0
0003FC0FC0
0003FC0000
0003FC0000
0003FC0000
0003FC0000
03FFFC0000
03FFFC0000
0FFFFC0000
0FFFFC0000
3FFFFC0000
3FFFFC0000
3FFFFC0000
3FFFFC0000
0FFFF00000
0FFFF00000
03FFC00000
03FFC00000
0000000000
0000000000
0000000000
0000000000
ENDCHAR
STARTCHAR U+266B
ENCODING 9835
SWIDTH 500 0
DWIDTH 36 0
BBX 36 36 0 0
BITMAP
0000000000
0000000000
003FFFFFC0
003FFFFFC0
003FFFFFC0
003FFFFFC0
003F000FC0
003F000FC0
003F000FC0
003F000FC0
003FFFFFC0
003FFFFFC0
003FFFFFC0
003FFFFFC0
003F000FC0
003F000FC0
003F000FC0
003F000FC0
003F000FC0
003F000FC0
003F00FFC0
003F00FFC0
03FF03FFC0
03FF03FFC0
0FFF0FFFC0
0FFF0FFFC0
3FFF0FFF00
3FFF0FFF00
3FFC03FC00
3FFC03FC00
0FF0000000
0FF0000000
0000000000
0000000000
0000000000
0000000000
ENDCHAR
STARTCHAR U+263C
ENCODING 9788
SWIDTH 500 0
DWIDTH 36 0
BBX 36 36 0 0
BITMAP
0000000000
0000000000
0000000000
0000000000
0003FC0000
0003FC0000
03F3FCFC00
03F3FCFC00
03FFFFFC00
03FFFFFC00
00FFFFF000
00FFFFF000
003F0FC000
003F0FC000
0FFC03FF00
0FFC03FF00
0FFC03FF00
0FFC03FF00
0FFC03FF00
0FFC03FF00
003F0FC000
003F0FC000
00FFFFF000
00FFFFF000
03FFFFFC00
03FFFFFC00
03F3FCFC00
03F3FCFC00
0003FC0000
0003FC0000
0000000000
0000000000
0000000000
0000000000
0000000000
0000000000
ENDCHAR
STARTCHAR U+25BA
ENCODING 9658
SWIDTH 500 0
DWIDTH 36 0
BBX 36 36 0 0
BITMAP
0000000000
0000000000
0000000000
0000000000
0F00000000
0F00000000
0FF0000000
0FF0000000
0FFF000000
0FFF000000
0FFFF00000
0FFFF00000
0FFFFF0000
0FFFFF0000
0FFFFFF000
0FFFFFF000
0FFFFFFF00
0FFFFFFF00
0FFFFFFF00
0FFFFFFF00
0FFFFFF000
0FFFFFF000
0FFFFF0000
0FFFFF0000
0FFFF00000
0FFFF00000
0FFF000000
0FFF000000
0FF0000000
0FF0000000
0F00000000
0F00000000
0000000000
0000000000
0000000000
0000000000
ENDCHAR
STARTCHAR U+25C4
ENCODING 9668
SWIDTH 500 0
DWIDTH 36 0
BBX 36 36 0 0
BITMAP
0000000000
0000000000
0000000000
0000000000
0000000F00
0000000F00
000000FF00
000000FF00
00000FFF00
00000FFF00
0000FFFF00
0000FFFF00
000FFFFF00
000FFFFF00
00FFFFFF00
00FFFFFF00
0FFFFFFF00
0FFFFFFF00
0FFFFFFF00
0FFFFFFF00
00FFFFFF00
00FFFFFF00
000FFFFF00
000FFFFF00
0000FFFF00
0000FFFF00
00000FFF00
00000FFF00
000000FF00
000000FF00
0000000F00
0000000F00
0000000000
0000000000
0000000000
0000000000
ENDCHAR
STARTCHAR U+2195
ENCODING 8597
SWIDTH 500 0
DWIDTH 36 0
BBX 36 36 0 0
BITMAP
0000000000
0000000000
0000F00000
0000F00000
0003FC0000
0003FC0000
000FFF0000
000FFF0000
003FFFC000
003FFFC000
00FFFFF000
00FFFFF000
0003FC0000
0003FC0000
0003FC0000
0003FC0000
0003FC0000
0003FC0000
0003FC0000
0003FC0000
0003FC0000
0003FC0000
0003FC0000
0003FC0000
00FFFFF000
00FFFFF000
003FFFC000
003FFFC000
000FFF0000
000FFF0000
0003FC0000
0003FC0000
0000F00000
0000F00000
0000000000
0000000000
ENDCHAR
STARTCHAR U+203C
ENCODING 8252
SWIDTH 500 0
DWIDTH 36 0
BBX 36 36 0 0
BITMAP
0000000000
0000000000
0000000000
0000000000
03FC03FC00
03FC03FC00
03FC03FC00
03FC03FC00
03FC03FC00
03FC03FC00
03FC03FC00
03FC03FC00
03FC03FC00
03FC03FC00
03FC03FC00
03FC03FC00
03FC03FC00
03FC03FC00
0000000000
0000000000
0000000000
0000000000
03FC03FC00
03FC03FC00
03FC03FC00
03FC03FC00
03FC03FC00
03FC03FC00
03FC03FC00
03FC03FC00
0000000000
0000000000
0000000000
0000000000
0000000000
0000000000
ENDCHAR
STARTCHAR U+00B6
ENCODING 182
SWIDTH 500 0
DWIDTH 36 0
BBX 36 36 0 0
BITMAP
0000000000
0000000000
0000000000
0000000000
03FFFFFFC0
03FFFFFFC0
0FFFFFFFC0
0FFFFFFFC0
3FC3FC3FC0
3FC3FC3FC0
3FC3FC3FC0
3FC3FC3FC0
3FC3FC3FC0
3FC3FC3FC0
3FC3FC3FC0
3FC3FC3FC0
3FC3FC3FC0
3FC3FC3FC0
0FFFFC3FC0
0FFFFC3FC0
03FFFC3FC0
03FFFC3FC0
0003FC3FC0
0003FC3FC0
0003FC3FC0
0003FC3FC0
0003FC3FC0
0003FC3FC0
0003FC3FC0
0003FC3FC0
0000000000
0000000000
0000000000
0000000000
0000000000
0000000000
ENDCHAR
STARTCHAR U+00A7
ENCODING 167
SWIDTH 500 0
DWIDTH 36 0
BBX 36 36 0 0
BITMAP
0000000000
0000000000
0000000000
0000000000
00FFFFFC00
00FFFFFC00
03FFFFFF00
03FFFFFF00
03FC000FC0
03FC000FC0
03FC0003C0
03FC0003C0
00FFFF00C0
00FFFF00C0
003FFFF000
003FFFF000
03FC03FC00
03FC03FC00
03F000FC00
03F000FC00
03FC03FC00
03FC03FC00
00FFFFF000
00FFFFF000
300FFFC000
300FFFC000
3C0003F000
3C0003F000
3FC003FC00
3FC003FC00
0FFFFFFC00
0FFFFFFC00
00FFFFF000
00FFFFF000
0000000000
0000000000
ENDCHAR
STARTCHAR U+25AC
ENCODING 9644
SWIDTH 500 0
DWIDTH 36 0
BBX 36 36 0 0
BITMAP
0000000000
0000000000
0000000000
0000000000
0000000000
0000000000
0000000000
0000000000
0000000000
0000000000
0000000000
0000000000
0000000000
0000000000
0000000000
0000000000
0000000000
0000000000
0000000000
0000000000
03FFFFFC00
03FFFFFC00
03FFFFFC00
03FFFFFC00
03FFFFFC00
03FFFFFC00
03FFFFFC00
03FFFFFC00
03FFFFFC00
03FFFFFC00
03FFFFFC00
03FFFFFC00
0000000000
0000000000
0000000000
0000000000
ENDCHAR
STARTCHAR U+21A8
ENCODING 8616
SWIDTH 500 0
DWIDTH 36 0
BBX 36 36 0 0
BITMAP
0000000000
0000000000
0000000000
0000000000
0000F00000
0000F00000
0003FC0000
0003FC0000
000FFF0000
000FFF0000
003FFFC000
003FFFC000
00FFFFF000
00FFFFF000
0003FC0000
0003FC0000
0003FC0000
0003FC0000
0003FC0000
0003FC0000
0003FC0000
0003FC0000
00FFFFF000
00FFFFF000
003FFFC000
003FFFC000
000FFF0000
000FFF0000
0003FC0000
0003FC0000
03FFFFFC00
03FFFFFC00
03FFFFFC00
03FFFFFC00
0000000000
0000000000
ENDCHAR
STARTCHAR U+2191
ENCODING 8593
SWIDTH 500 0
DWIDTH 36 0
BBX 36 36 0 0
BITMAP
0000000000
0000000000
0000F00000
0000F00000
0003FC0000
0003FC0000
000FFF0000
000FFF0000
003FFFC000
003FFFC000
00FFFFF000
00FFFFF000
03FFFFFC00
03FFFFFC00
0FFFFFFF00
0FFFFFFF00
0003FC0000
0003FC0000
0003FC0000
0003FC0000
0003FC0000
0003FC0000
0003FC0000
0003FC0000
0003FC0000
0003FC0000
0003FC0000
0003FC0000
0003FC0000
0003FC0000
0003FC0000
0003FC0000
0000000000
0000000000
0000000000
0000000000
ENDCHAR
STARTCHAR U+2193
ENCODING 8595
SWIDTH 500 0
DWIDTH 36 0
BBX 36 36 0 0
BITMAP
0000000000
0000000000
0000000000
0000000000
0003FC0000
0003FC0000
0003FC0000
0003FC0000
0003FC0000
0003FC0000
0003FC0000
0003FC0000
0003FC0000
0003FC0000
0003FC0000
0003FC0000
0003FC0000
0003FC0000
0FFFFFFF00
0FFFFFFF00
03FFFFFC00
03FFFFFC00
00FFFFF000
00FFFFF000
003FFFC000
003FFFC000
000FFF0000
000FFF0000
0003FC0000
0003FC0000
0000F00000
0000F00000
0000000000
0000000000
0000000000
0000000000
ENDCHAR
STARTCHAR U+2192
ENCODING 8594
SWIDTH 500 0
DWIDTH 36 0
BBX 36 36 0 0
BITMAP
0000000000
0000000000
0000000000
0000000000
00000C0000
00000C0000
00000F0000
00000F0000
00000FC000
00000FC000
00000FF000
00000FF000
00000FFC00
00000FFC00
0FFFFFFF00
0FFFFFFF00
0FFFFFFFC0
0FFFFFFFC0
0FFFFFFFC0
0FFFFFFFC0
0FFFFFFF00
0FFFFFFF00
00000FFC00
00000FFC00
00000FF000
00000FF000
00000FC000
00000FC000
00000F0000
00000F0000
00000C0000
00000C0000
0000000000
0000000000
0000000000
0000000000
ENDCHAR
STARTCHAR U+2190
ENCODING 8592
SWIDTH 500 0
DWIDTH 36 0
BBX 36 36 0 0
BITMAP
0000000000
0000000000
0000000000
0000000000
0003000000
0003000000
000F000000
000F000000
003F000000
003F000000
00FF000000
00FF000000
03FF000000
03FF000000
0FFFFFFF00
0FFFFFFF00
3FFFFFFF00
3FFFFFFF00
3FFFFFFF00
3FFFFFFF00
0FFFFFFF00
0FFFFFFF00
03FF000000
03FF000000
00FF000000
00FF000000
003F000000
003F000000
000F000000
000F000000
0003000000
0003000000
0000000000
0000000000
0000000000
0000000000
ENDCHAR
STARTCHAR U+221F
ENCODING 8735
SWIDTH 500 0
DWIDTH 36 0
BBX 36 36 0 0
BITMAP
0000000000
0000000000
0000000000
0000000000
0000000000
0000000000
0000000000
0000000000
0000000000
0000000000
03FC000000
03FC000000
03FC000000
03FC000000
03FC000000
03FC000000
03FC000000
03FC000000
03FC000000
03FC000000
03FC000000
03FC000000
03FFFFFC00
03FFFFFC00
03FFFFFC00
03FFFFFC00
0000000000
0000000000
0000000000
0000000000
0000000000
0000000000
0000000000
0000000000
0000000000
0000000000
ENDCHAR
STARTCHAR U+2194
ENCODING 8596
SWIDTH 500 0
DWIDTH 36 0
BBX 36 36 0 0
BITMAP
0000000000
0000000000
0000000000
0000000000
0000000000
0000000000
0000000000
0000000000
000C030000
000C030000
003C03C000
003C03C000
00FC03F000
00FC03F000
03FC03FC00
03FC03FC00
0FFFFFFF00
0FFFFFFF00
3FFFFFFFC0
3FFFFFFFC0
0FFFFFFF00
0FFFFFFF00
03FC03FC00
03FC03FC00
00FC03F000
00FC03F000
003C03C000
003C03C000
000C030000
000C030000
0000000000
0000000000
0000000000
0000000000
0000000000
0000000000
ENDCHAR
STARTCHAR U+25B2
ENCODING 9650
SWIDTH 500 0
DWIDTH 36 0
BBX 36 36 0 0
BITMAP
0000000000
0000000000
0000000000
0000000000
0000F00000
0000F00000
0000F00000
0000F00000
0003FC0000
0003FC0000
0003FC0000
0003FC0000
000FFF0000
000FFF0000
000FFF0000
000FFF0000
003FFFC000
003FFFC000
003FFFC000
003FFFC000
00FFFFF000
00FFFFF000
00FFFFF000
00FFFFF000
03FFFFFC00
03FFFFFC00
03FFFFFC00
03FFFFFC00
0FFFFFFF00
0FFFFFFF00
0FFFFFFF00
0FFFFFFF00
0000000000
0000000000
0000000000
0000000000
ENDCHAR
STARTCHAR U+25BC
ENCODING 9660
SWIDTH 500 0
DWIDTH 36 0
BBX 36 36 0 0
BITMAP
0000000000
0000000000
0000000000
0000000000
0FFFFFFF00
0FFFFFFF00
0FFFFFFF00
0FFFFFFF00
03FFFFFC00
03FFFFFC00
03FFFFFC00
03FFFFFC00
00FFFFF000
00FFFFF000
00FFFFF000
00FFFFF000
003FFFC000
003FFFC000
003FFFC000
003FFFC000
000FFF0000
000FFF0000
000FFF0000
000FFF0000
0003FC0000
0003FC0000
0003FC0000
0003FC0000
0000F00000
0000F00000
0000F00000
0000F00000
0000000000
0000000000
0000000000
0000000000
ENDCHAR
STARTCHAR U+0020
ENCODING 32
SWIDTH 500 0
DWIDTH 36 0
BBX 36 36 0 0
BITMAP
0000000000
0000000000
0000000000
0000000000
0000000000
0000000000
0000000000
0000000000
0000000000
0000000000
0000000000
0000000000
0000000000
0000000000
0000000000
0000000000
0000000000
0000000000
0000000000
0000000000
0000000000
0000000000
0000000000
0000000000
0000000000
0000000000
0000000000
0000000000
0000000000
0000000000
0000000000
0000000000
0000000000
0000000000
0000000000
0000000000
ENDCHAR
STARTCHAR U+0021
ENCODING 33
SWIDTH 500 0
DWIDTH 36 0
BBX 36 36 0 0
BITMAP
0000000000
0000000000
0003FC0000
0003FC0000
000FFF0000
000FFF0000
000FFF0000
000FFF0000
000FFF0000
000FFF0000
000FFF0000
000FFF0000
000FFF0000
000FFF0000
0003FC0000
0003FC0000
0003FC0000
0003FC0000
0000000000
0000000000
0000000000
0000000000
0003FC0000
0003FC0000
0003FC0000
0003FC0000
0003FC0000
0003FC0000
0003FC0000
0003FC0000
0000000000
0000000000
0000000000
0000000000
0000000000
0000000000
ENDCHAR
STARTCHAR U+0022
ENCODING 34
SWIDTH 500 0
DWIDTH 36 0
BBX 36 36 0 0
BITMAP
0000000000
0000000000
03FC03FC00
03FC03FC00
03FC03FC00
03FC03FC00
03FC03FC00
03FC03FC00
03FC03FC00
03FC03FC00
00FC03F000
00FC03F000
003C03C000
003C03C000
0000000000
0000000000
0000000000
0000000000
0000000000
0000000000
0000000000
0000000000
0000000000
0000000000
0000000000
0000000000
0000000000
0000000000
0000000000
0000000000
0000000000
0000000000
0000000000
0000000000
0000000000
0000000000
ENDCHAR
STARTCHAR U+0023
ENCODING 35
SWIDTH 500 0
DWIDTH 36 0
BBX 36 36 0 0
BITMAP
0000000000
0000000000
03FC0FF000
03FC0FF000
03FC0FF000
03FC0FF000
03FC0FF000
03FC0FF000
03FC0FF000
03FC0FF000
3FFFFFFF00
3FFFFFFF00
3FFFFFFF00
3FFFFFFF00
03FC0FF000
03FC0FF000
03FC0FF000
03FC0FF000
03FC0FF000
03FC0FF000
3FFFFFFF00
3FFFFFFF00
3FFFFFFF00
3FFFFFFF00
03FC0FF000
03FC0FF000
03FC0FF000
03FC0FF000
03FC0FF000
03FC0FF000
03FC0FF000
03FC0FF000
0000000000
0000000000
0000000000
0000000000
ENDCHAR
STARTCHAR U+0024
ENCODING 36
SWIDTH 500 0
DWIDTH 36 0
BBX 36 36 0 0
BITMAP
0003FC0000
0003FC0000
0003FC0000
0003FC0000
0003FC0000
0003FC0000
003FFFFC00
003FFFFC00
00FFFFFC00
00FFFFFC00
03FC000000
03FC000000
03FC000000
03FC000000
00FFFFC000
00FFFFC000
003FFFF000
003FFFF000
000003FC00
000003FC00
000003FC00
000003FC00
03FFFFF000
03FFFFF000
03FFFFC000
03FFFFC000
0003FC0000
0003FC0000
0003FC0000
0003FC0000
0003FC0000
0003FC0000
0000000000
0000000000
0000000000
0000000000
ENDCHAR
STARTCHAR U+0025
ENCODING 37
SWIDTH 500 0
DWIDTH 36 0
BBX 36 36 0 0
BITMAP
0000000000
0000000000
0000000000
0000000000
0FF0003F00
0FF0003F00
0FF000FF00
0FF000FF00
0FF003FC00
0FF003FC00
0FF00FF000
0FF00FF000
00003FC000
00003FC000
0000FF0000
0000FF0000
0003FC0000
0003FC0000
000FF00000
000FF00000
003FC00000
003FC00000
00FF00FF00
00FF00FF00
03FC00FF00
03FC00FF00
0FF000FF00
0FF000FF00
0FC000FF00
0FC000FF00
0000000000
0000000000
0000000000
0000000000
0000000000
0000000000
ENDCHAR
STARTCHAR U+0026
ENCODING 38
SWIDTH 500 0
DWIDTH 36 0
BBX 36 36 0 0
BITMAP
0000000000
0000000000
0000000000
0000000000
00FFF00000
00FFF00000
03FFFC0000
03FFFC0000
0FF0FF0000
0FF0FF0000
0FF0FF0000
0FF0FF0000
0FF0FF0000
0FF0FF0000
00FFF00F00
00FFF00F00
00FFF03F00
00FFF03F00
0FF0FCFC00
0FF0FCFC00
0FF03FFC00
0FF03FFC00
0FF00FF000
0FF00FF000
0FF00FF000
0FF00FF000
03FFFFFC00
03FFFFFC00
00FFFCFF00
00FFFCFF00
0000000000
0000000000
0000000000
0000000000
0000000000
0000000000
ENDCHAR
STARTCHAR U+0027
ENCODING 39
SWIDTH 500 0
DWIDTH 36 0
BBX 36 36 0 0
BITMAP
0000000000
0000000000
0000000000
0000000000
0003FC0000
0003FC0000
0003FC0000
0003FC0000
0003FC0000
0003FC0000
000FF00000
000FF00000
003FC00000
003FC00000
0000000000
0000000000
0000000000
0000000000
0000000000
0000000000
0000000000
0000000000
0000000000
0000000000
0000000000
0000000000
0000000000
0000000000
0000000000
0000000000
0000000000
0000000000
0000000000
0000000000
0000000000
0000000000
ENDCHAR
STARTCHAR U+0028
ENCODING 40
SWIDTH 500 0
DWIDTH 36 0
BBX 36 36 0 0
BITMAP
0000000000
0000000000
0000000000
0000000000
00003FC000
00003FC000
0000FF0000
0000FF0000
0003FC0000
0003FC0000
000FF00000
000FF00000
003FC00000
003FC00000
003FC00000
003FC00000
003FC00000
003FC00000
003FC00000
003FC00000
003FC00000
003FC00000
000FF00000
000FF00000
0003FC0000
0003FC0000
0000FF0000
0000FF0000
00003FC000
00003FC000
0000000000
0000000000
0000000000
0000000000
0000000000
0000000000
ENDCHAR
STARTCHAR U+0029
ENCODING 41
SWIDTH 500 0
DWIDTH 36 0
BBX 36 36 0 0
BITMAP
0000000000
0000000000
0000000000
0000000000
003FC00000
003FC00000
000FF00000
000FF00000
0003FC0000
0003FC0000
0000FF0000
0000FF0000
00003FC000
00003FC000
00003FC000
00003FC000
00003FC000
00003FC000
00003FC000
00003FC000
00003FC000
00003FC000
0000FF0000
0000FF0000
0003FC0000
0003FC0000
000FF00000
000FF00000
003FC00000
003FC00000
0000000000
0000000000
0000000000
0000000000
0000000000
0000000000
ENDCHAR
STARTCHAR U+002A
ENCODING 42
SWIDTH 500 0
DWIDTH 36 0
BBX 36 36 0 0
BITMAP
0000000000
0000000000
0000F00000
0000F00000
0000F00000
0000F00000
03C0F03C00
03C0F03C00
00F0F0F000
00F0F0F000
003FFFC000
003FFFC000
000FFF0000
000FFF0000
0FFFFFFF00
0FFFFFFF00
0FFFFFFF00
0FFFFFFF00
000FFF0000
000FFF0000
003FFFC000
003FFFC000
00F0F0F000
00F0F0F000
03C0F03C00
03C0F03C00
0000F00000
0000F00000
0000F00000
0000F00000
0000000000
0000000000
0000000000
0000000000
0000000000
0000000000
ENDCHAR
STARTCHAR U+002B
ENCODING 43
SWIDTH 500 0
DWIDTH 36 0
BBX 36 36 0 0
BITMAP
0000000000
0000000000
0000000000
0000000000
0000000000
0000000000
0003FC0000
0003FC0000
0003FC0000
0003FC0000
0003FC0000
0003FC0000
0003FC0000
0003FC0000
03FFFFFC00
03FFFFFC00
03FFFFFC00
03FFFFFC00
03FFFFFC00
03FFFFFC00
0003FC0000
0003FC0000
0003FC0000
0003FC0000
0003FC0000
0003FC0000
0003FC0000
0003FC0000
0000000000
0000000000
0000000000
0000000000
0000000000
0000000000
0000000000
0000000000
ENDCHAR
STARTCHAR U+002C
ENCODING 44
SWIDTH 500 0
DWIDTH 36 0
BBX 36 36 0 0
BITMAP
0000000000
0000000000
0000000000
0000000000
0000000000
0000000000
0000000000
0000000000
0000000000
0000000000
0000000000
0000000000
0000000000
0000000000
0000000000
0000000000
0000000000
0000000000
0000000000
0000000000
0000000000
0000000000
0003FC0000
0003FC0000
0003FC0000
0003FC0000
0003FC0000
0003FC0000
000FF00000
000FF00000
003FC00000
003FC00000
0000000000
0000000000
0000000000
0000000000
ENDCHAR
STARTCHAR U+002D
ENCODING 45
SWIDTH 500 0
DWIDTH 36 0
BBX 36 36 0 0
BITMAP
0000000000
0000000000
0000000000
0000000000
0000000000
0000000000
0000000000
0000000000
0000000000
0000000000
0000000000
0000000000
0000000000
0000000000
0000000000
0000000000
03FFFFFC00
03FFFFFC00
03FFFFFC00
03FFFFFC00
0000000000
0000000000
0000000000
0000000000
0000000000
0000000000
0000000000
0000000000
0000000000
0000000000
0000000000
0000000000
0000000000
0000000000
0000000000
0000000000
ENDCHAR
STARTCHAR U+002E
ENCODING 46
SWIDTH 500 0
DWIDTH 36 0
BBX 36 36 0 0
BITMAP
0000000000
0000000000
0000000000
0000000000
0000000000
0000000000
0000000000
0000000000
0000000000
0000000000
0000000000
0000000000
0000000000
0000000000
0000000000
0000000000
0000000000
0000000000
0000000000
0000000000
0000000000
0000000000
0003FC0000
0003FC0000
0003FC0000
0003FC0000
0003FC0000
0003FC0000
0003FC0000
0003FC0000
0000000000
0000000000
0000000000
0000000000
0000000000
0000000000
ENDCHAR
STARTCHAR U+002F
ENCODING 47
SWIDTH 500 0
DWIDTH 36 0
BBX 36 36 0 0
BITMAP
0000000000
0000000000
0000000FC0
0000000FC0
0000003FC0
0000003FC0
000000FFC0
000000FFC0
000003FF00
000003FF00
00000FFC00
00000FFC00
00003FF000
00003FF000
0000FFC000
0000FFC000
0003FF0000
0003FF0000
000FFC0000
000FFC0000
003FF00000
003FF00000
00FFC00000
00FFC00000
03FF000000
03FF000000
0FFC000000
0FFC000000
3FF0000000
3FF0000000
3FC0000000
3FC0000000
3F00000000
3F00000000
0000000000
0000000000
ENDCHAR
STARTCHAR U+0030
ENCODING 48
SWIDTH 500 0
DWIDTH 36 0
BBX 36 36 0 0
BITMAP
0000000000
0000000000
0000000000
0000000000
003FFFC000
003FFFC000
00FFFFF000
00FFFFF000
03FC03FC00
03FC03FC00
03FC03FC00
03FC03FC00
03FC0FFC00
03FC0FFC00
03FC3FFC00
03FC3FFC00
03FCF3FC00
03FCF3FC00
03FFC3FC00
03FFC3FC00
03FF03FC00
03FF03FC00
03FC03FC00
03FC03FC00
03FC03FC00
03FC03FC00
00FFFFF000
00FFFFF000
003FFFC000
003FFFC000
0000000000
0000000000
0000000000
0000000000
0000000000
0000000000
ENDCHAR
STARTCHAR U+0031
ENCODING 49
SWIDTH 500 0
DWIDTH 36 0
BBX 36 36 0 0
BITMAP
0000000000
0000000000
0000000000
0000000000
0003FC0000
0003FC0000
000FFC0000
000FFC0000
03FFFC0000
03FFFC0000
03FFFC0000
03FFFC0000
0003FC0000
0003FC0000
0003FC0000
0003FC0000
0003FC0000
0003FC0000
0003FC0000
0003FC0000
0003FC0000
0003FC0000
0003FC0000
0003FC0000
0003FC0000
0003FC0000
03FFFFFC00
03FFFFFC00
03FFFFFC00
03FFFFFC00
0000000000
0000000000
0000000000
0000000000
0000000000
0000000000
ENDCHAR
STARTCHAR U+0032
ENCODING 50
SWIDTH 500 0
DWIDTH 36 0
BBX 36 36 0 0
BITMAP
0000000000
0000000000
0000000000
0000000000
003FFFC000
003FFFC000
00FFFFF000
00FFFFF000
03FC03FC00
03FC03FC00
03FC03FC00
03FC03FC00
000003FC00
000003FC00
00000FF000
00000FF000
00003FC000
00003FC000
0003FC0000
0003FC0000
000FF00000
000FF00000
003FC00000
003FC00000
00FF00FC00
00FF00FC00
03FFFFFC00
03FFFFFC00
03FFFFFC00
03FFFFFC00
0000000000
0000000000
0000000000
0000000000
0000000000
0000000000
ENDCHAR
STARTCHAR U+0033
ENCODING 51
SWIDTH 500 0
DWIDTH 36 0
BBX 36 36 0 0
BITMAP
0000000000
0000000000
0000000000
0000000000
003FFFC000
003FFFC000
00FFFFF000
00FFFFF000
03FC03FC00
03FC03FC00
03F003FC00
03F003FC00
000003FC00
000003FC00
000003FC00
000003FC00
0003FFC000
0003FFC000
000003FC00
000003FC00
000003FC00
000003FC00
03F003FC00
03F003FC00
03FC03FC00
03FC03FC00
00FFFFF000
00FFFFF000
003FFFC000
003FFFC000
0000000000
0000000000
0000000000
0000000000
0000000000
0000000000
ENDCHAR
STARTCHAR U+0034
ENCODING 52
SWIDTH 500 0
DWIDTH 36 0
BBX 36 36 0 0
BITMAP
0000000000
0000000000
0000000000
0000000000
00003FFC00
00003FFC00
0000FFFC00
0000FFFC00
0003FFFC00
0003FFFC00
000FFFFC00
000FFFFC00
003FC3FC00
003FC3FC00
00FF03FC00
00FF03FC00
03FC03FC00
03FC03FC00
03FFFFFFC0
03FFFFFFC0
03FFFFFFC0
03FFFFFFC0
000003FC00
000003FC00
000003FC00
000003FC00
000003FC00
000003FC00
000003FC00
000003FC00
0000000000
0000000000
0000000000
0000000000
0000000000
0000000000
ENDCHAR
STARTCHAR U+0035
ENCODING 53
SWIDTH 500 0
DWIDTH 36 0
BBX 36 36 0 0
BITMAP
0000000000
0000000000
0000000000
0000000000
03FFFFFC00
03FFFFFC00
03FFFFFC00
03FFFFFC00
03FC000000
03FC000000
03FC000000
03FC000000
03FFFFC000
03FFFFC000
03FFFFF000
03FFFFF000
000003FC00
000003FC00
000000FC00
000000FC00
000000FC00
000000FC00
03F000FC00
03F000FC00
03FC03FC00
03FC03FC00
00FFFFF000
00FFFFF000
003FFFC000
003FFFC000
0000000000
0000000000
0000000000
0000000000
0000000000
0000000000
ENDCHAR
STARTCHAR U+0036
ENCODING 54
SWIDTH 500 0
DWIDTH 36 0
BBX 36 36 0 0
BITMAP
0000000000
0000000000
0000000000
0000000000
003FFFC000
003FFFC000
00FFFFF000
00FFFFF000
03FC03FC00
03FC03FC00
03FC00FC00
03FC00FC00
03FC000000
03FC000000
03FC000000
03FC000000
03FFFFC000
03FFFFC000
03FC03FC00
03FC03FC00
03FC03FC00
03FC03FC00
03FC03FC00
03FC03FC00
03FC03FC00
03FC03FC00
00FFFFF000
00FFFFF000
003FFFC000
003FFFC000
0000000000
0000000000
0000000000
0000000000
0000000000
0000000000
ENDCHAR
STARTCHAR U+0037
ENCODING 55
SWIDTH 500 0
DWIDTH 36 0
BBX 36 36 0 0
BITMAP
0000000000
0000000000
0000000000
0000000000
03FFFFFC00
03FFFFFC00
03FFFFFC00
03FFFFFC00
03FC03FC00
03FC03FC00
03FC03FC00
03FC03FC00
00000FF000
00000FF000
00003FC000
00003FC000
0000FF0000
0000FF0000
0003FC0000
0003FC0000
0003FC0000
0003FC0000
0003FC0000
0003FC0000
0003FC0000
0003FC0000
0003FC0000
0003FC0000
0003FC0000
0003FC0000
0000000000
0000000000
0000000000
0000000000
0000000000
0000000000
ENDCHAR
STARTCHAR U+0038
ENCODING 56
SWIDTH 500 0
DWIDTH 36 0
BBX 36 36 0 0
BITMAP
0000000000
0000000000
0000000000
0000000000
003FFFC000
003FFFC000
00FFFFF000
00FFFFF000
03FC03FC00
03FC03FC00
03FC03FC00
03FC03FC00
03FC03FC00
03FC03FC00
03FC03FC00
03FC03FC00
003FFFC000
003FFFC000
03FC03FC00
03FC03FC00
03FC03FC00
03FC03FC00
03FC03FC00
03FC03FC00
03FC03FC00
03FC03FC00
00FFFFF000
00FFFFF000
003FFFC000
003FFFC000
0000000000
0000000000
0000000000
0000000000
0000000000
0000000000
ENDCHAR
STARTCHAR U+0039
ENCODING 57
SWIDTH 500 0
DWIDTH 36 0
BBX 36 36 0 0
BITMAP
0000000000
0000000000
0000000000
0000000000
003FFFC000
003FFFC000
00FFFFF000
00FFFFF000
03FC03FC00
03FC03FC00
03FC03FC00
03FC03FC00
03FC03FC00
03FC03FC00
03FC03FC00
03FC03FC00
00FFFFFC00
00FFFFFC00
000003FC00
000003FC00
000003FC00
000003FC00
03F003FC00
03F003FC00
03FC03FC00
03FC03FC00
00FFFFF000
00FFFFF000
003FFFC000
003FFFC000
0000000000
0000000000
0000000000
0000000000
0000000000
0000000000
ENDCHAR
STARTCHAR U+003A
ENCODING 58
SWIDTH 500 0
DWIDTH 36 0
BBX 36 36 0 0
BITMAP
0000000000
0000000000
0000000000
0000000000
0000000000
0000000000
0000000000
0000000000
0003FC0000
0003FC0000
0003FC0000
0003FC0000
0003FC0000
0003FC0000
0003FC0000
0003FC0000
0000000000
0000000000
0000000000
0000000000
0003FC0000
0003FC0000
0003FC0000
0003FC0000
0003FC0000
0003FC0000
0003FC0000
0003FC0000
0000000000
0000000000
0000000000
0000000000
0000000000
0000000000
0000000000
0000000000
ENDCHAR
STARTCHAR U+003B
ENCODING 59
SWIDTH 500 0
DWIDTH 36 0
BBX 36 36 0 0
BITMAP
0000000000
0000000000
0000000000
0000000000
0000000000
0000000000
0000000000
0000000000
0003FC0000
0003FC0000
0003FC0000
0003FC0000
0003FC0000
0003FC0000
0003FC0000
0003FC0000
0000000000
0000000000
0000000000
0000000000
0003FC0000
0003FC0000
0003FC0000
0003FC0000
0003FC0000
0003FC0000
0003FC0000
0003FC0000
000FF00000
000FF00000
003FC00000
003FC00000
0000000000
0000000000
0000000000
0000000000
ENDCHAR
STARTCHAR U+003C
ENCODING 60
SWIDTH 500 0
DWIDTH 36 0
BBX 36 36 0 0
BITMAP
0000000000
0000000000
00000FC000
00000FC000
00003FC000
00003FC000
0000FF0000
0000FF0000
0003FC0000
0003FC0000
000FF00000
000FF00000
003FC00000
003FC00000
00FF000000
00FF000000
03FC000000
03FC000000
00FF000000
00FF000000
003FC00000
003FC00000
000FF00000
000FF00000
0003FC0000
0003FC0000
0000FF0000
0000FF0000
00003FC000
00003FC000
00000FC000
00000FC000
0000000000
0000000000
0000000000
0000000000
ENDCHAR
STARTCHAR U+003D
ENCODING 61
SWIDTH 500 0
DWIDTH 36 0
BBX 36 36 0 0
BITMAP
0000000000
0000000000
0000000000
0000000000
0000000000
0000000000
0000000000
0000000000
0000000000
0000000000
0000000000
0000000000
03FFFFFC00
03FFFFFC00
03FFFFFC00
03FFFFFC00
0000000000
0000000000
0000000000
0000000000
03FFFFFC00
03FFFFFC00
03FFFFFC00
03FFFFFC00
0000000000
0000000000
0000000000
0000000000
0000000000
0000000000
0000000000
0000000000
0000000000
0000000000
0000000000
0000000000
ENDCHAR
STARTCHAR U+003E
ENCODING 62
SWIDTH 500 0
DWIDTH 36 0
BBX 36 36 0 0
BITMAP
0000000000
0000000000
003F000000
003F000000
003FC00000
003FC00000
000FF00000
000FF00000
0003FC0000
0003FC0000
0000FF0000
0000FF0000
00003FC000
00003FC000
00000FF000
00000FF000
000003FC00
000003FC00
00000FF000
00000FF000
00003FC000
00003FC000
0000FF0000
0000FF0000
0003FC0000
0003FC0000
000FF00000
000FF00000
003FC00000
003FC00000
003F000000
003F000000
0000000000
0000000000
0000000000
0000000000
ENDCHAR
STARTCHAR U+003F
ENCODING 63
SWIDTH 500 0
DWIDTH 36 0
BBX 36 36 0 0
BITMAP
0000000000
0000000000
0000000000
0000000000
003FFFC000
003FFFC000
00FFFFF000
00FFFFF000
03FC03FC00
03FC03FC00
03F003FC00
03F003FC00
000003FC00
000003FC00
000003F000
000003F000
00000FC000
00000FC000
0000FF0000
0000FF0000
0003FC0000
0003FC0000
0000000000
0000000000
0000000000
0000000000
0003FC0000
0003FC0000
0003FC0000
0003FC0000
0000000000
0000000000
0000000000
0000000000
0000000000
0000000000
ENDCHAR
STARTCHAR U+0040
ENCODING 64
SWIDTH 500 0
DWIDTH 36 0
BBX 36 36 0 0
BITMAP
0000000000
0000000000
0000000000
0000000000
00FFFFC000
00FFFFC000
03FFFFF000
03FFFFF000
0FF000FC00
0FF000FC00
0FF000FC00
0FF000FC00
0FF000FC00
0FF000FC00
0FF0FFFC00
0FF0FFFC00
0FF0FFFC00
0FF0FFFC00
0FF0000000
0FF0000000
0FF0000000
0FF0000000
0FF0000000
0FF0000000
0FF0000000
0FF0000000
03FFFFFC00
03FFFFFC00
00FFFFFC00
00FFFFFC00
0000000000
0000000000
0000000000
0000000000
0000000000
0000000000
ENDCHAR
STARTCHAR U+0041
ENCODING 65
SWIDTH 500 0
DWIDTH 36 0
BBX 36 36 0 0
BITMAP
0000000000
0000000000
0000000000
0000000000
0003FC0000
0003FC0000
000FFF0000
000FFF0000
003FFFC000
003FFFC000
00FFFFF000
00FFFFF000
03FC03FC00
03FC03FC00
03FC03FC00
03FC03FC00
03FC03FC00
03FC03FC00
03FFFFFC00
03FFFFFC00
03FFFFFC00
03FFFFFC00
03FC03FC00
03FC03FC00
03FC03FC00
03FC03FC00
03FC03FC00
03FC03FC00
03FC03FC00
03FC03FC00
0000000000
0000000000
0000000000
0000000000
0000000000
0000000000
ENDCHAR
STARTCHAR U+0042
ENCODING 66
SWIDTH 500 0
DWIDTH 36 0
BBX 36 36 0 0
BITMAP
0000000000
0000000000
0000000000
0000000000
3FFFFFC000
3FFFFFC000
3FFFFFC000
3FFFFFC000
03FC03FC00
03FC03FC00
03FC03FC00
03FC03FC00
03FC03FC00
03FC03FC00
03FC03FC00
03FC03FC00
03FFFFC000
03FFFFC000
03FC03FC00
03FC03FC00
03FC03FC00
03FC03FC00
03FC03FC00
03FC03FC00
03FC03FC00
03FC03FC00
3FFFFFC000
3FFFFFC000
3FFFFFC000
3FFFFFC000
0000000000
0000000000
0000000000
0000000000
0000000000
0000000000
ENDCHAR
STARTCHAR U+0043
ENCODING 67
SWIDTH 500 0
DWIDTH 36 0
BBX 36 36 0 0
BITMAP
0000000000
0000000000
0000000000
0000000000
00FFFFC000
00FFFFC000
03FFFFF000
03FFFFF000
0FFC03FC00
0FFC03FC00
0FF000FC00
0FF000FC00
3FC0000000
3FC0000000
3FC0000000
3FC0000000
3FC0000000
3FC0000000
3FC0000000
3FC0000000
3FC0000000
3FC0000000
0FF000FC00
0FF000FC00
0FFC03FC00
0FFC03FC00
03FFFFF000
03FFFFF000
00FFFFC000
00FFFFC000
0000000000
0000000000
0000000000
0000000000
0000000000
0000000000
ENDCHAR
STARTCHAR U+0044
ENCODING 68
SWIDTH 500 0
DWIDTH 36 0
BBX 36 36 0 0
BITMAP
0000000000
0000000000
0000000000
0000000000
0FFFFFC000
0FFFFFC000
0FFFFFF000
0FFFFFF000
00FF03FC00
00FF03FC00
00FF00FC00
00FF00FC00
00FF003F00
00FF003F00
00FF003F00
00FF003F00
00FF003F00
00FF003F00
00FF003F00
00FF003F00
00FF003F00
00FF003F00
00FF00FC00
00FF00FC00
00FF03FC00
00FF03FC00
0FFFFFF000
0FFFFFF000
0FFFFFC000
0FFFFFC000
0000000000
0000000000
0000000000
0000000000
0000000000
0000000000
ENDCHAR
STARTCHAR U+0045
ENCODING 69
SWIDTH 500 0
DWIDTH 36 0
BBX 36 36 0 0
BITMAP
0000000000
0000000000
0000000000
0000000000
3FFFFFFC00
3FFFFFFC00
3FFFFFFC00
3FFFFFFC00
03FC00FC00
03FC00FC00
03FC003C00
03FC003C00
03FC000000
03FC000000
03FC03C000
03FC03C000
03FFFFC000
03FFFFC000
03FC03C000
03FC03C000
03FC000000
03FC000000
03FC003C00
03FC003C00
03FC00FC00
03FC00FC00
3FFFFFFC00
3FFFFFFC00
3FFFFFFC00
3FFFFFFC00
0000000000
0000000000
0000000000
0000000000
0000000000
0000000000
ENDCHAR
STARTCHAR U+0046
ENCODING 70
SWIDTH 500 0
DWIDTH 36 0
BBX 36 36 0 0
BITMAP
0000000000
0000000000
0000000000
0000000000
3FFFFFFC00
3FFFFFFC00
3FFFFFFC00
3FFFFFFC00
03FC00FC00
03FC00FC00
03FC003C00
03FC003C00
03FC000000
03FC000000
03FC03C000
03FC03C000
03FFFFC000
03FFFFC000
03FC03C000
03FC03C000
03FC000000
03FC000000
03FC000000
03FC000000
03FC000000
03FC000000
3FFFC00000
3FFFC00000
3FFFC00000
3FFFC00000
0000000000
0000000000
0000000000
0000000000
0000000000
0000000000
ENDCHAR
STARTCHAR U+0047
ENCODING 71
SWIDTH 500 0
DWIDTH 36 0
BBX 36 36 0 0
BITMAP
0000000000
0000000000
0000000000
0000000000
00FFFFC000
00FFFFC000
03FFFFF000
03FFFFF000
0FFC03FC00
0FFC03FC00
0FF003FC00
0FF003FC00
3FC003FC00
3FC003FC00
3FC0000000
3FC0000000
3FC0000000
3FC0000000
3FC03FFC00
3FC03FFC00
3FC03FFC00
3FC03FFC00
0FF003FC00
0FF003FC00
0FFC03FC00
0FFC03FC00
03FFFFFC00
03FFFFFC00
00FFFFFC00
00FFFFFC00
0000000000
0000000000
0000000000
0000000000
0000000000
0000000000
ENDCHAR
STARTCHAR U+0048
ENCODING 72
SWIDTH 500 0
DWIDTH 36 0
BBX 36 36 0 0
BITMAP
0000000000
0000000000
0000000000
0000000000
03FC03FC00
03FC03FC00
03FC03FC00
03FC03FC00
03FC03FC00
03FC03FC00
03FC03FC00
03FC03FC00
03FC03FC00
03FC03FC00
03FC03FC00
03FC03FC00
03FFFFFC00
03FFFFFC00
03FC03FC00
03FC03FC00
03FC03FC00
03FC03FC00
03FC03FC00
03FC03FC00
03FC03FC00
03FC03FC00
03FC03FC00
03FC03FC00
03FC03FC00
03FC03FC00
0000000000
0000000000
0000000000
0000000000
0000000000
0000000000
ENDCHAR
STARTCHAR U+0049
ENCODING 73
SWIDTH 500 0
DWIDTH 36 0
BBX 36 36 0 0
BITMAP
0000000000
0000000000
0000000000
0000000000
003FFFC000
003FFFC000
003FFFC000
003FFFC000
0003FC0000
0003FC0000
0003FC0000
0003FC0000
0003FC0000
0003FC0000
0003FC0000
0003FC0000
0003FC0000
0003FC0000
0003FC0000
0003FC0000
0003FC0000
0003FC0000
0003FC0000
0003FC0000
0003FC0000
0003FC0000
003FFFC000
003FFFC000
003FFFC000
003FFFC000
0000000000
0000000000
0000000000
0000000000
0000000000
0000000000
ENDCHAR
STARTCHAR U+004A
ENCODING 74
SWIDTH 500 0
DWIDTH 36 0
BBX 36 36 0 0
BITMAP
0000000000
0000000000
0000000000
0000000000
0003FFFC00
0003FFFC00
0003FFFC00
0003FFFC00
00003FC000
00003FC000
00003FC000
00003FC000
00003FC000
00003FC000
00003FC000
00003FC000
00003FC000
00003FC000
3FC03FC000
3FC03FC000
3FC03FC000
3FC03FC000
3FC03FC000
3FC03FC000
3FC03FC000
3FC03FC000
0FFFFF0000
0FFFFF0000
03FFFC0000
03FFFC0000
0000000000
0000000000
0000000000
0000000000
0000000000
0000000000
ENDCHAR
STARTCHAR U+004B
ENCODING 75
SWIDTH 500 0
DWIDTH 36 0
BBX 36 36 0 0
BITMAP
0000000000
0000000000
0000000000
0000000000
3FFC003FC0
3FFC003FC0
3FFC003FC0
3FFC003FC0
03FC00FF00
03FC00FF00
03FC03FC00
03FC03FC00
03FC0FF000
03FC0FF000
03FC3FC000
03FC3FC000
03FFFF0000
03FFFF0000
03FFFFC000
03FFFFC000
03FC0FF000
03FC0FF000
03FC03FC00
03FC03FC00
03FC00FF00
03FC00FF00
3FFC003FC0
3FFC003FC0
3FFC003FC0
3FFC003FC0
0000000000
0000000000
0000000000
0000000000
0000000000
0000000000
ENDCHAR
STARTCHAR U+004C
ENCODING 76
SWIDTH 500 0
DWIDTH 36 0
BBX 36 36 0 0
BITMAP
0000000000
0000000000
0000000000
0000000000
0FFFF00000
0FFFF00000
0FFFF00000
0FFFF00000
00FF000000
00FF000000
00FF000000
00FF000000
00FF000000
00FF000000
00FF000000
00FF000000
00FF000000
00FF000000
00FF000000
00FF000000
00FF000000
00FF000000
00FF000F00
00FF000F00
00FF003F00
00FF003F00
0FFFFFFF00
0FFFFFFF00
0FFFFFFF00
0FFFFFFF00
0000000000
0000000000
0000000000
0000000000
0000000000
0000000000
ENDCHAR
STARTCHAR U+004D
ENCODING 77
SWIDTH 500 0
DWIDTH 36 0
BBX 36 36 0 0
BITMAP
0000000000
0000000000
0000000000
0000000000
0FF000FF00
0FF000FF00
0FFC03FF00
0FFC03FF00
0FFF0FFF00
0FFF0FFF00
0FFFFFFF00
0FFFFFFF00
0FFFFFFF00
0FFFFFFF00
0FF3FCFF00
0FF3FCFF00
0FF0F0FF00
0FF0F0FF00
0FF000FF00
0FF000FF00
0FF000FF00
0FF000FF00
0FF000FF00
0FF000FF00
0FF000FF00
0FF000FF00
0FF000FF00
0FF000FF00
0FF000FF00
0FF000FF00
0000000000
0000000000
0000000000
0000000000
0000000000
0000000000
ENDCHAR
STARTCHAR U+004E
ENCODING 78
SWIDTH 500 0
DWIDTH 36 0
BBX 36 36 0 0
BITMAP
0000000000
0000000000
0000000000
0000000000
0FF000FF00
0FF000FF00
0FFC00FF00
0FFC00FF00
0FFF00FF00
0FFF00FF00
0FFFC0FF00
0FFFC0FF00
0FFFF0FF00
0FFFF0FF00
0FFFFCFF00
0FFFFCFF00
0FF3FFFF00
0FF3FFFF00
0FF0FFFF00
0FF0FFFF00
0FF03FFF00
0FF03FFF00
0FF00FFF00
0FF00FFF00
0FF003FF00
0FF003FF00
0FF000FF00
0FF000FF00
0FF000FF00
0FF000FF00
0000000000
0000000000
0000000000
0000000000
0000000000
0000000000
ENDCHAR
STARTCHAR U+004F
ENCODING 79
SWIDTH 500 0
DWIDTH 36 0
BBX 36 36 0 0
BITMAP
0000000000
0000000000
0000000000
0000000000
00FFFFF000
00FFFFF000
03FFFFFC00
03FFFFFC00
0FF000FF00
0FF000FF00
0FF000FF00
0FF000FF00
0FF000FF00
0FF000FF00
0FF000FF00
0FF000FF00
0FF000FF00
0FF000FF00
0FF000FF00
0FF000FF00
0FF000FF00
0FF000FF00
0FF000FF00
0FF000FF00
0FF000FF00
0FF000FF00
03FFFFFC00
03FFFFFC00
00FFFFF000
00FFFFF000
0000000000
0000000000
0000000000
0000000000
0000000000
0000000000
ENDCHAR
STARTCHAR U+0050
ENCODING 80
SWIDTH 500 0
DWIDTH 36 0
BBX 36 36 0 0
BITMAP
0000000000
0000000000
0000000000
0000000000
3FFFFFC000
3FFFFFC000
3FFFFFF000
3FFFFFF000
03FC03FC00
03FC03FC00
03FC03FC00
03FC03FC00
03FC03FC00
03FC03FC00
03FC03FC00
03FC03FC00
03FFFFF000
03FFFFF000
03FC000000
03FC000000
03FC000000
03FC000000
03FC000000
03FC000000
03FC000000
03FC000000
3FFFC00000
3FFFC00000
3FFFC00000
3FFFC00000
0000000000
0000000000
0000000000
0000000000
0000000000
0000000000
ENDCHAR
STARTCHAR U+0051
ENCODING 81
SWIDTH 500 0
DWIDTH 36 0
BBX 36 36 0 0
BITMAP
0000000000
0000000000
0000000000
0000000000
03FFFFC000
03FFFFC000
0FFFFFF000
0FFFFFF000
3FC003FC00
3FC003FC00
3FC003FC00
3FC003FC00
3FC003FC00
3FC003FC00
3FC003FC00
3FC003FC00
3FC003FC00
3FC003FC00
3FC00FFC00
3FC00FFC00
3FC03FFC00
3FC03FFC00
0FFFFFC000
0FFFFFC000
03FFFFC000
03FFFFC000
0003FFFC00
0003FFFC00
0000FFFC00
0000FFFC00
0000000000
0000000000
0000000000
0000000000
0000000000
0000000000
ENDCHAR
STARTCHAR U+0052
ENCODING 82
SWIDTH 500 0
DWIDTH 36 0
BBX 36 36 0 0
BITMAP
0000000000
0000000000
0000000000
0000000000
3FFFFFC000
3FFFFFC000
3FFFFFF000
3FFFFFF000
03FC03FC00
03FC03FC00
03FC03FC00
03FC03FC00
03FC03FC00
03FC03FC00
03FC03FC00
03FC03FC00
03FFFFF000
03FFFFF000
03FFFF0000
03FFFF0000
03FC3FC000
03FC3FC000
03FC0FF000
03FC0FF000
03FC03FC00
03FC03FC00
3FFC03FC00
3FFC03FC00
3FFC03FC00
3FFC03FC00
0000000000
0000000000
0000000000
0000000000
0000000000
0000000000
ENDCHAR
STARTCHAR U+0053
ENCODING 83
SWIDTH 500 0
DWIDTH 36 0
BBX 36 36 0 0
BITMAP
0000000000
0000000000
0000000000
0000000000
003FFFC000
003FFFC000
00FFFFF000
00FFFFF000
03FC03FC00
03FC03FC00
03FC03FC00
03FC03FC00
03FC000000
03FC000000
03FF000000
03FF000000
00FFFF0000
00FFFF0000
00000FF000
00000FF000
000003FC00
000003FC00
03FC03FC00
03FC03FC00
03FC03FC00
03FC03FC00
00FFFFF000
00FFFFF000
003FFFC000
003FFFC000
0000000000
0000000000
0000000000
0000000000
0000000000
0000000000
ENDCHAR
STARTCHAR U+0054
ENCODING 84
SWIDTH 500 0
DWIDTH 36 0
BBX 36 36 0 0
BITMAP
0000000000
0000000000
0000000000
0000000000
03FFFFFC00
03FFFFFC00
03FFFFFC00
03FFFFFC00
03C3FC3C00
03C3FC3C00
0303FC0C00
0303FC0C00
0003FC0000
0003FC0000
0003FC0000
0003FC0000
0003FC0000
0003FC0000
0003FC0000
0003FC0000
0003FC0000
0003FC0000
0003FC0000
0003FC0000
0003FC0000
0003FC0000
003FFFC000
003FFFC000
003FFFC000
003FFFC000
0000000000
0000000000
0000000000
0000000000
0000000000
0000000000
ENDCHAR
STARTCHAR U+0055
ENCODING 85
SWIDTH 500 0
DWIDTH 36 0
BBX 36 36 0 0
BITMAP
0000000000
0000000000
0000000000
0000000000
03FC03FC00
03FC03FC00
03FC03FC00
03FC03FC00
03FC03FC00
03FC03FC00
03FC03FC00
03FC03FC00
03FC03FC00
03FC03FC00
03FC03FC00
03FC03FC00
03FC03FC00
03FC03FC00
03FC03FC00
03FC03FC00
03FC03FC00
03FC03FC00
03FC03FC00
03FC03FC00
03FC03FC00
03FC03FC00
00FFFFF000
00FFFFF000
003FFFC000
003FFFC000
0000000000
0000000000
0000000000
0000000000
0000000000
0000000000
ENDCHAR
STARTCHAR U+0056
ENCODING 86
SWIDTH 500 0
DWIDTH 36 0
BBX 36 36 0 0
BITMAP
0000000000
0000000000
0000000000
0000000000
03FC03FC00
03FC03FC00
03FC03FC00
03FC03FC00
03FC03FC00
03FC03FC00
03FC03FC00
03FC03FC00
03FC03FC00
03FC03FC00
03FC03FC00
03FC03FC00
03FC03FC00
03FC03FC00
03FC03FC00
03FC03FC00
03FC03FC00
03FC03FC00
00FF0FF000
00FF0FF000
003FFFC000
003FFFC000
000FFF0000
000FFF0000
0003FC0000
0003FC0000
0000000000
0000000000
0000000000
0000000000
0000000000
0000000000
ENDCHAR
STARTCHAR U+0057
ENCODING 87
SWIDTH 500 0
DWIDTH 36 0
BBX 36 36 0 0
BITMAP
0000000000
0000000000
0000000000
0000000000
0FF000FF00
0FF000FF00
0FF000FF00
0FF000FF00
0FF000FF00
0FF000FF00
0FF000FF00
0FF000FF00
0FF000FF00
0FF000FF00
0FF000FF00
0FF000FF00
0FF0F0FF00
0FF0F0FF00
0FF0F0FF00
0FF0F0FF00
0FF0F0FF00
0FF0F0FF00
03FFFFFC00
03FFFFFC00
03FFFFFC00
03FFFFFC00
00FF0FF000
00FF0FF000
00FF0FF000
00FF0FF000
0000000000
0000000000
0000000000
0000000000
0000000000
0000000000
ENDCHAR
STARTCHAR U+0058
ENCODING 88
SWIDTH 500 0
DWIDTH 36 0
BBX 36 36 0 0
BITMAP
0000000000
0000000000
0000000000
0000000000
03FC03FC00
03FC03FC00
03FC03FC00
03FC03FC00
03FC03FC00
03FC03FC00
00FF0FF000
00FF0FF000
003FFFC000
003FFFC000
000FFF0000
000FFF0000
0003FC0000
0003FC0000
000FFF0000
000FFF0000
003FFFC000
003FFFC000
00FF0FF000
00FF0FF000
03FC03FC00
03FC03FC00
03FC03FC00
03FC03FC00
03FC03FC00
03FC03FC00
0000000000
0000000000
0000000000
0000000000
0000000000
0000000000
ENDCHAR
STARTCHAR U+0059
ENCODING 89
SWIDTH 500 0
DWIDTH 36 0
BBX 36 36 0 0
BITMAP
0000000000
0000000000
0000000000
0000000000
03FC03FC00
03FC03FC00
03FC03FC00
03FC03FC00
03FC03FC00
03FC03FC00
03FC03FC00
03FC03FC00
03FC03FC00
03FC03FC00
03FC03FC00
03FC03FC00
00FF0FF000
00FF0FF000
000FFF0000
000FFF0000
0003FC0000
0003FC0000
0003FC0000
0003FC0000
0003FC0000
0003FC0000
003FFFC000
003FFFC000
003FFFC000
003FFFC000
0000000000
0000000000
0000000000
0000000000
0000000000
0000000000
ENDCHAR
STARTCHAR U+005A
ENCODING 90
SWIDTH 500 0
DWIDTH 36 0
BBX 36 36 0 0
BITMAP
0000000000
0000000000
0000000000
0000000000
03FFFFFC00
03FFFFFC00
03FFFFFC00
03FFFFFC00
03F003FC00
03F003FC00
03C003FC00
03C003FC00
03000FF000
03000FF000
00003FC000
00003FC000
0000FF0000
0000FF0000
0003FC0000
0003FC0000
000FF00000
000FF00000
003FC00C00
003FC00C00
00FFC03C00
00FFC03C00
03FFFFFC00
03FFFFFC00
03FFFFFC00
03FFFFFC00
0000000000
0000000000
0000000000
0000000000
0000000000
0000000000
ENDCHAR
STARTCHAR U+005B
ENCODING 91
SWIDTH 500 0
DWIDTH 36 0
BBX 36 36 0 0
BITMAP
0000000000
0000000000
0000000000
0000000000
003FFFC000
003FFFC000
003FFFC000
003FFFC000
003FC00000
003FC00000
003FC00000
003FC00000
003FC00000
003FC00000
003FC00000
003FC00000
003FC00000
003FC00000
003FC00000
003FC00000
003FC00000
003FC00000
003FC00000
003FC00000
003FC00000
003FC00000
003FFFC000
003FFFC000
003FFFC000
003FFFC000
0000000000
0000000000
0000000000
0000000000
0000000000
0000000000
ENDCHAR
STARTCHAR U+005C
ENCODING 92
SWIDTH 500 0
DWIDTH 36 0
BBX 36 36 0 0
BITMAP
0000000000
0000000000
3F00000000
3F00000000
3FC0000000
3FC0000000
3FF0000000
3FF0000000
0FFC000000
0FFC000000
03FF000000
03FF000000
00FFC00000
00FFC00000
003FF00000
003FF00000
000FFC0000
000FFC0000
0003FF0000
0003FF0000
0000FFC000
0000FFC000
00003FF000
00003FF000
00000FFC00
00000FFC00
000003FF00
000003FF00
000000FFC0
000000FFC0
0000003FC0
0000003FC0
0000000FC0
0000000FC0
0000000000
0000000000
ENDCHAR
STARTCHAR U+005D
ENCODING 93
SWIDTH 500 0
DWIDTH 36 0
BBX 36 36 0 0
BITMAP
0000000000
0000000000
0000000000
0000000000
003FFFC000
003FFFC000
003FFFC000
003FFFC000
00003FC000
00003FC000
00003FC000
00003FC000
00003FC000
00003FC000
00003FC000
00003FC000
00003FC000
00003FC000
00003FC000
00003FC000
00003FC000
00003FC000
00003FC000
00003FC000
00003FC000
00003FC000
003FFFC000
003FFFC000
003FFFC000
003FFFC000
0000000000
0000000000
0000000000
0000000000
0000000000
0000000000
ENDCHAR
STARTCHAR U+005E
ENCODING 94
SWIDTH 500 0
DWIDTH 36 0
BBX 36 36 0 0
BITMAP
0000000000
0000000000
0000000000
0000000000
0000F00000
0000F00000
0003FC0000
0003FC0000
000FFF0000
000FFF0000
003FFFC000
003FFFC000
00FF0FF000
00FF0FF000
03FC03FC00
03FC03FC00
0FF000FF00
0FF000FF00
0000000000
0000000000
0000000000
0000000000
0000000000
0000000000
0000000000
0000000000
0000000000
0000000000
0000000000
0000000000
0000000000
0000000000
0000000000
0000000000
0000000000
0000000000
ENDCHAR
STARTCHAR U+005F
ENCODING 95
SWIDTH 500 0
DWIDTH 36 0
BBX 36 36 0 0
BITMAP
0000000000
0000000000
0000000000
0000000000
0000000000
0000000000
0000000000
0000000000
0000000000
0000000000
0000000000
0000000000
0000000000
0000000000
0000000000
0000000000
0000000000
0000000000
0000000000
0000000000
0000000000
0000000000
0000000000
0000000000
0000000000
0000000000
0000000000
0000000000
FFFFFFFFF0
FFFFFFFFF0
FFFFFFFFF0
FFFFFFFFF0
0000000000
0000000000
0000000000
0000000000
ENDCHAR
STARTCHAR U+0060
ENCODING 96
SWIDTH 500 0
DWIDTH 36 0
BBX 36 36 0 0
BITMAP
0000000000
0000000000
000FF00000
000FF00000
000FF00000
000FF00000
000FF00000
000FF00000
000FF00000
000FF00000
0003FC0000
0003FC0000
0000FF0000
0000FF0000
0000000000
0000000000
0000000000
0000000000
0000000000
0000000000
0000000000
0000000000
0000000000
0000000000
0000000000
0000000000
0000000000
0000000000
0000000000
0000000000
0000000000
0000000000
0000000000
0000000000
0000000000
0000000000
ENDCHAR
STARTCHAR U+0061
ENCODING 97
SWIDTH 500 0
DWIDTH 36 0
BBX 36 36 0 0
BITMAP
0000000000
0000000000
0000000000
0000000000
0000000000
0000000000
0000000000
0000000000
0000000000
0000000000
0000000000
0000000000
03FFFC0000
03FFFC0000
03FFFF0000
03FFFF0000
00003FC000
00003FC000
03FFFFC000
03FFFFC000
0FFFFFC000
0FFFFFC000
3FC03FC000
3FC03FC000
3FC03FC000
3FC03FC000
0FFFFFFC00
0FFFFFFC00
03FFF0FC00
03FFF0FC00
0000000000
0000000000
0000000000
0000000000
0000000000
0000000000
ENDCHAR
STARTCHAR U+0062
ENCODING 98
SWIDTH 500 0
DWIDTH 36 0
BBX 36 36 0 0
BITMAP
0000000000
0000000000
0000000000
0000000000
3FFC000000
3FFC000000
3FFC000000
3FFC000000
03FC000000
03FC000000
03FC000000
03FC000000
03FFFFC000
03FFFFC000
03FFFFF000
03FFFFF000
03FC03FC00
03FC03FC00
03FC03FC00
03FC03FC00
03FC03FC00
03FC03FC00
03FC03FC00
03FC03FC00
03FC03FC00
03FC03FC00
3FFFFFF000
3FFFFFF000
3FFFFFC000
3FFFFFC000
0000000000
0000000000
0000000000
0000000000
0000000000
0000000000
ENDCHAR
STARTCHAR U+0063
ENCODING 99
SWIDTH 500 0
DWIDTH 36 0
BBX 36 36 0 0
BITMAP
0000000000
0000000000
0000000000
0000000000
0000000000
0000000000
0000000000
0000000000
0000000000
0000000000
0000000000
0000000000
003FFFC000
003FFFC000
00FFFFF000
00FFFFF000
03FC03FC00
03FC03FC00
03F0000000
03F0000000
03F0000000
03F0000000
03F000FC00
03F000FC00
03FC03FC00
03FC03FC00
00FFFFF000
00FFFFF000
003FFFC000
003FFFC000
0000000000
0000000000
0000000000
0000000000
0000000000
0000000000
ENDCHAR
STARTCHAR U+0064
ENCODING 100
SWIDTH 500 0
DWIDTH 36 0
BBX 36 36 0 0
BITMAP
0000000000
0000000000
0000000000
0000000000
00003FFC00
00003FFC00
00003FFC00
00003FFC00
000003FC00
000003FC00
000003FC00
000003FC00
003FFFFC00
003FFFFC00
00FFFFFC00
00FFFFFC00
03FC03FC00
03FC03FC00
03FC03FC00
03FC03FC00
03FC03FC00
03FC03FC00
03FC03FC00
03FC03FC00
03FC03FC00
03FC03FC00
00FFFFFC00
00FFFFFC00
003FFFFC00
003FFFFC00
0000000000
0000000000
0000000000
0000000000
0000000000
0000000000
ENDCHAR
STARTCHAR U+0065
ENCODING 101
SWIDTH 500 0
DWIDTH 36 0
BBX 36 36 0 0
BITMAP
0000000000
0000000000
0000000000
0000000000
0000000000
0000000000
0000000000
0000000000
0000000000
0000000000
0000000000
0000000000
003FFFC000
003FFFC000
00FFFFF000
00FFFFF000
03FC03FC00
03FC03FC00
03FFFFFC00
03FFFFFC00
03FFFFFC00
03FFFFFC00
03FC000000
03FC000000
03FC00FC00
03FC00FC00
00FFFFF000
00FFFFF000
003FFFC000
003FFFC000
0000000000
0000000000
0000000000
0000000000
0000000000
0000000000
ENDCHAR
STARTCHAR U+0066
ENCODING 102
SWIDTH 500 0
DWIDTH 36 0
BBX 36 36 0 0
BITMAP
0000000000
0000000000
0000000000
0000000000
0003FFC000
0003FFC000
000FFFF000
000FFFF000
003FC3FC00
003FC3FC00
003FC3FC00
003FC3FC00
003FC00000
003FC00000
003FC00000
003FC00000
03FFFFC000
03FFFFC000
03FFFFC000
03FFFFC000
003FC00000
003FC00000
003FC00000
003FC00000
003FC00000
003FC00000
03FFFC0000
03FFFC0000
03FFFC0000
03FFFC0000
0000000000
0000000000
0000000000
0000000000
0000000000
0000000000
ENDCHAR
STARTCHAR U+0067
ENCODING 103
SWIDTH 500 0
DWIDTH 36 0
BBX 36 36 0 0
BITMAP
0000000000
0000000000
0000000000
0000000000
0000000000
0000000000
0000000000
0000000000
0000000000
0000000000
0000000000
0000000000
00FFF0FF00
00FFF0FF00
03FFFFFF00
03FFFFFF00
0FF00FF000
0FF00FF000
0FF00FF000
0FF00FF000
0FF00FF000
0FF00FF000
03FFFFF000
03FFFFF000
00FFFFF000
00FFFFF000
00000FF000
00000FF000
0FF00FF000
0FF00FF000
03FFFFC000
03FFFFC000
00FFFF0000
00FFFF0000
0000000000
0000000000
ENDCHAR
STARTCHAR U+0068
ENCODING 104
SWIDTH 500 0
DWIDTH 36 0
BBX 36 36 0 0
BITMAP
0000000000
0000000000
0000000000
0000000000
03FF000000
03FF000000
03FF000000
03FF000000
00FF000000
00FF000000
00FF000000
00FF000000
00FF0FF000
00FF0FF000
00FF3FFC00
00FF3FFC00
00FFFFFF00
00FFFFFF00
00FFC0FF00
00FFC0FF00
00FF00FF00
00FF00FF00
00FF00FF00
00FF00FF00
00FF00FF00
00FF00FF00
03FF00FF00
03FF00FF00
03FF00FF00
03FF00FF00
0000000000
0000000000
0000000000
0000000000
0000000000
0000000000
ENDCHAR
STARTCHAR U+0069
ENCODING 105
SWIDTH 500 0
DWIDTH 36 0
BBX 36 36 0 0
BITMAP
0000000000
0000000000
0000000000
0000000000
0003FC0000
0003FC0000
0003FC0000
0003FC0000
0000000000
0000000000
0000000000
0000000000
03FFFC0000
03FFFC0000
03FFFC0000
03FFFC0000
0003FC0000
0003FC0000
0003FC0000
0003FC0000
0003FC0000
0003FC0000
0003FC0000
0003FC0000
0003FC0000
0003FC0000
03FFFFFC00
03FFFFFC00
03FFFFFC00
03FFFFFC00
0000000000
0000000000
0000000000
0000000000
0000000000
0000000000
ENDCHAR
STARTCHAR U+006A
ENCODING 106
SWIDTH 500 0
DWIDTH 36 0
BBX 36 36 0 0
BITMAP
0000000000
0000000000
0000000000
0000000000
000003FC00
000003FC00
000003FC00
000003FC00
0000000000
0000000000
0000000000
0000000000
0003FFFC00
0003FFFC00
0003FFFC00
0003FFFC00
000003FC00
000003FC00
000003FC00
000003FC00
000003FC00
000003FC00
000003FC00
000003FC00
000003FC00
000003FC00
03FC03FC00
03FC03FC00
03FC03FC00
03FC03FC00
00FFFFF000
00FFFFF000
003FFFC000
003FFFC000
0000000000
0000000000
ENDCHAR
STARTCHAR U+006B
ENCODING 107
SWIDTH 500 0
DWIDTH 36 0
BBX 36 36 0 0
BITMAP
0000000000
0000000000
0000000000
0000000000
0FFF000000
0FFF000000
0FFF000000
0FFF000000
00FF000000
00FF000000
00FF000000
00FF000000
00FF003F00
00FF003F00
00FF00FF00
00FF00FF00
00FF03FC00
00FF03FC00
00FFFFF000
00FFFFF000
00FFFFC000
00FFFFC000
00FF3FF000
00FF3FF000
00FF0FFC00
00FF0FFC00
0FFF03FF00
0FFF03FF00
0FFF00FF00
0FFF00FF00
0000000000
0000000000
0000000000
0000000000
0000000000
0000000000
ENDCHAR
STARTCHAR U+006C
ENCODING 108
SWIDTH 500 0
DWIDTH 36 0
BBX 36 36 0 0
BITMAP
0000000000
0000000000
0000000000
0000000000
03FFFC0000
03FFFC0000
03FFFC0000
03FFFC0000
0003FC0000
0003FC0000
0003FC0000
0003FC0000
0003FC0000
0003FC0000
0003FC0000
0003FC0000
0003FC0000
0003FC0000
0003FC0000
0003FC0000
0003FC0000
0003FC0000
0003FC0000
0003FC0000
0003FC0000
0003FC0000
03FFFFFC00
03FFFFFC00
03FFFFFC00
03FFFFFC00
0000000000
0000000000
0000000000
0000000000
0000000000
0000000000
ENDCHAR
STARTCHAR U+006D
ENCODING 109
SWIDTH 500 0
DWIDTH 36 0
BBX 36 36 0 0
BITMAP
0000000000
0000000000
0000000000
0000000000
0000000000
0000000000
0000000000
0000000000
0000000000
0000000000
0000000000
0000000000
0FFFFFF000
0FFFFFF000
0FFFFFFC00
0FFFFFFC00
0FF0F0FF00
0FF0F0FF00
0FF0F0FF00
0FF0F0FF00
0FF0F0FF00
0FF0F0FF00
0FF0F0FF00
0FF0F0FF00
0FF0F0FF00
0FF0F0FF00
0FF000FF00
0FF000FF00
0FF000FF00
0FF000FF00
0000000000
0000000000
0000000000
0000000000
0000000000
0000000000
ENDCHAR
STARTCHAR U+006E
ENCODING 110
SWIDTH 500 0
DWIDTH 36 0
BBX 36 36 0 0
BITMAP
0000000000
0000000000
0000000000
0000000000
0000000000
0000000000
0000000000
0000000000
0000000000
0000000000
0000000000
0000000000
03FFFFC000
03FFFFC000
03FFFFF000
03FFFFF000
03FC03FC00
03FC03FC00
03FC03FC00
03FC03FC00
03FC03FC00
03FC03FC00
03FC03FC00
03FC03FC00
03FC03FC00
03FC03FC00
03FC03FC00
03FC03FC00
03FC03FC00
03FC03FC00
0000000000
0000000000
0000000000
0000000000
0000000000
0000000000
ENDCHAR
STARTCHAR U+006F
ENCODING 111
SWIDTH 500 0
DWIDTH 36 0
BBX 36 36 0 0
BITMAP
0000000000
0000000000
0000000000
0000000000
0000000000
0000000000
0000000000
0000000000
0000000000
0000000000
0000000000
0000000000
003FFFC000
003FFFC000
00FFFFF000
00FFFFF000
03FC03FC00
03FC03FC00
03FC03FC00
03FC03FC00
03FC03FC00
03FC03FC00
03FC03FC00
03FC03FC00
03FC03FC00
03FC03FC00
00FFFFF000
00FFFFF000
003FFFC000
003FFFC000
0000000000
0000000000
0000000000
0000000000
0000000000
0000000000
ENDCHAR
STARTCHAR U+0070
ENCODING 112
SWIDTH 500 0
DWIDTH 36 0
BBX 36 36 0 0
BITMAP
0000000000
0000000000
0000000000
0000000000
0000000000
0000000000
0000000000
0000000000
0000000000
0000000000
0000000000
0000000000
3FC3FFC000
3FC3FFC000
3FCFFFF000
3FCFFFF000
03FC03FC00
03FC03FC00
03FC03FC00
03FC03FC00
03FC03FC00
03FC03FC00
03FC03FC00
03FC03FC00
03FFFFF000
03FFFFF000
03FFFFC000
03FFFFC000
03FC000000
03FC000000
03FC000000
03FC000000
3FFFC00000
3FFFC00000
3FFFC00000
3FFFC00000
ENDCHAR
STARTCHAR U+0071
ENCODING 113
SWIDTH 500 0
DWIDTH 36 0
BBX 36 36 0 0
BITMAP
0000000000
0000000000
0000000000
0000000000
0000000000
0000000000
0000000000
0000000000
0000000000
0000000000
0000000000
0000000000
03FFC3FC00
03FFC3FC00
0FFFF3FC00
0FFFF3FC00
3FC03FC000
3FC03FC000
3FC03FC000
3FC03FC000
3FC03FC000
3FC03FC000
3FC03FC000
3FC03FC000
0FFFFFC000
0FFFFFC000
03FFFFC000
03FFFFC000
00003FC000
00003FC000
00003FC000
00003FC000
0003FFFC00
0003FFFC00
0003FFFC00
0003FFFC00
ENDCHAR
STARTCHAR U+0072
ENCODING 114
SWIDTH 500 0
DWIDTH 36 0
BBX 36 36 0 0
BITMAP
0000000000
0000000000
0000000000
0000000000
0000000000
0000000000
0000000000
0000000000
0000000000
0000000000
0000000000
0000000000
3FFC3FF000
3FFC3FF000
3FFCFFFC00
3FFCFFFC00
03FFF3FC00
03FFF3FC00
03FF000000
03FF000000
03FC000000
03FC000000
03FC000000
03FC000000
03FC000000
03FC000000
3FFFC00000
3FFFC00000
3FFFC00000
3FFFC00000
0000000000
0000000000
0000000000
0000000000
0000000000
0000000000
ENDCHAR
STARTCHAR U+0073
ENCODING 115
SWIDTH 500 0
DWIDTH 36 0
BBX 36 36 0 0
BITMAP
0000000000
0000000000
0000000000
0000000000
0000000000
0000000000
0000000000
0000000000
0000000000
0000000000
0000000000
0000000000
003FFFF000
003FFFF000
00FFFFFC00
00FFFFFC00
03FC003C00
03FC003C00
00FFC00000
00FFC00000
000FFFF000
000FFFF000
00000FFC00
00000FFC00
03C003FC00
03C003FC00
03FFFFF000
03FFFFF000
00FFFFC000
00FFFFC000
0000000000
0000000000
0000000000
0000000000
0000000000
0000000000
ENDCHAR
STARTCHAR U+0074
ENCODING 116
SWIDTH 500 0
DWIDTH 36 0
BBX 36 36 0 0
BITMAP
0000000000
0000000000
0000000000
0000000000
0003C00000
0003C00000
000FC00000
000FC00000
003FC00000
003FC00000
00FFC00000
00FFC00000
03FFFFFC00
03FFFFFC00
03FFFFFC00
03FFFFFC00
003FC00000
003FC00000
003FC00000
003FC00000
003FC00000
003FC00000
003FC0FC00
003FC0FC00
003FC3FC00
003FC3FC00
000FFFF000
000FFFF000
0003FFC000
0003FFC000
0000000000
0000000000
0000000000
0000000000
0000000000
0000000000
ENDCHAR
STARTCHAR U+0075
ENCODING 117
SWIDTH 500 0
DWIDTH 36 0
BBX 36 36 0 0
BITMAP
0000000000
0000000000
0000000000
0000000000
0000000000
0000000000
0000000000
0000000000
0000000000
0000000000
0000000000
0000000000
03FC03FC00
03FC03FC00
03FC03FC00
03FC03FC00
03FC03FC00
03FC03FC00
03FC03FC00
03FC03FC00
03FC03FC00
03FC03FC00
03FC03FC00
03FC03FC00
03FC03FC00
03FC03FC00
00FFFFFFC0
00FFFFFFC0
003FFC3FC0
003FFC3FC0
0000000000
0000000000
0000000000
0000000000
0000000000
0000000000
ENDCHAR
STARTCHAR U+0076
ENCODING 118
SWIDTH 500 0
DWIDTH 36 0
BBX 36 36 0 0
BITMAP
0000000000
0000000000
0000000000
0000000000
0000000000
0000000000
0000000000
0000000000
0000000000
0000000000
0000000000
0000000000
03FC03FC00
03FC03FC00
03FC03FC00
03FC03FC00
03FC03FC00
03FC03FC00
03FC03FC00
03FC03FC00
03FC03FC00
03FC03FC00
00FF0FF000
00FF0FF000
003FFFC000
003FFFC000
000FFF0000
000FFF0000
0003FC0000
0003FC0000
0000000000
0000000000
0000000000
0000000000
0000000000
0000000000
ENDCHAR
STARTCHAR U+0077
ENCODING 119
SWIDTH 500 0
DWIDTH 36 0
BBX 36 36 0 0
BITMAP
0000000000
0000000000
0000000000
0000000000
0000000000
0000000000
0000000000
0000000000
0000000000
0000000000
0000000000
0000000000
0FF000FF00
0FF000FF00
0FF000FF00
0FF000FF00
0FF0F0FF00
0FF0F0FF00
0FF0F0FF00
0FF0F0FF00
0FF0F0FF00
0FF0F0FF00
03FFFFFC00
03FFFFFC00
03FFFFFC00
03FFFFFC00
00FF0FF000
00FF0FF000
00FF0FF000
00FF0FF000
0000000000
0000000000
0000000000
0000000000
0000000000
0000000000
ENDCHAR
STARTCHAR U+0078
ENCODING 120
SWIDTH 500 0
DWIDTH 36 0
BBX 36 36 0 0
BITMAP
0000000000
0000000000
0000000000
0000000000
0000000000
0000000000
0000000000
0000000000
0000000000
0000000000
0000000000
0000000000
03F000FC00
03F000FC00
03F000FC00
03F000FC00
03FC03FC00
03FC03FC00
003FFFC000
003FFFC000
003FFFC000
003FFFC000
00FF0FF000
00FF0FF000
03FC03FC00
03FC03FC00
03F000FC00
03F000FC00
03F000FC00
03F000FC00
0000000000
0000000000
0000000000
0000000000
0000000000
0000000000
ENDCHAR
STARTCHAR U+0079
ENCODING 121
SWIDTH 500 0
DWIDTH 36 0
BBX 36 36 0 0
BITMAP
0000000000
0000000000
0000000000
0000000000
0000000000
0000000000
0000000000
0000000000
0000000000
0000000000
0000000000
0000000000
03FC03FC00
03FC03FC00
03FC03FC00
03FC03FC00
03FC03FC00
03FC03FC00
03FC03FC00
03FC03FC00
03FC03FC00
03FC03FC00
00FFFFF000
00FFFFF000
003FFFF000
003FFFF000
00003FC000
00003FC000
00003FC000
00003FC000
03FFFF0000
03FFFF0000
03FFFC0000
03FFFC0000
0000000000
0000000000
ENDCHAR
STARTCHAR U+007A
ENCODING 122
SWIDTH 500 0
DWIDTH 36 0
BBX 36 36 0 0
BITMAP
0000000000
0000000000
0000000000
0000000000
0000000000
0000000000
0000000000
0000000000
0000000000
0000000000
0000000000
0000000000
03FFFFFC00
03FFFFFC00
03FFFFFC00
03FFFFFC00
03C03FC000
03C03FC000
0300FF0000
0300FF0000
0003FC0000
0003FC0000
000FF00C00
000FF00C00
003FC03C00
003FC03C00
00FFFFFC00
00FFFFFC00
03FFFFFC00
03FFFFFC00
0000000000
0000000000
0000000000
0000000000
0000000000
0000000000
ENDCHAR
STARTCHAR U+007B
ENCODING 123
SWIDTH 500 0
DWIDTH 36 0
BBX 36 36 0 0
BITMAP
0000000000
0000000000
0000000000
0000000000
0000FFF000
0000FFF000
0003FFF000
0003FFF000
000FF00000
000FF00000
000FF00000
000FF00000
000FF00000
000FF00000
003FC00000
003FC00000
00FF000000
00FF000000
003FC00000
003FC00000
000FF00000
000FF00000
000FF00000
000FF00000
000FF00000
000FF00000
0003FFF000
0003FFF000
0000FFF000
0000FFF000
0000000000
0000000000
0000000000
0000000000
0000000000
0000000000
ENDCHAR
STARTCHAR U+007C
ENCODING 124
SWIDTH 500 0
DWIDTH 36 0
BBX 36 36 0 0
BITMAP
0000000000
0000000000
0000000000
0000000000
0003FC0000
0003FC0000
0003FC0000
0003FC0000
0003FC0000
0003FC0000
0003FC0000
0003FC0000
0003FC0000
0003FC0000
0003FC0000
0003FC0000
0000000000
0000000000
0003FC0000
0003FC0000
0003FC0000
0003FC0000
0003FC0000
0003FC0000
0003FC0000
0003FC0000
0003FC0000
0003FC0000
0003FC0000
0003FC0000
0000000000
0000000000
0000000000
0000000000
0000000000
0000000000
ENDCHAR
STARTCHAR U+007D
ENCODING 125
SWIDTH 500 0
DWIDTH 36 0
BBX 36 36 0 0
BITMAP
0000000000
0000000000
0000000000
0000000000
00FFF00000
00FFF00000
00FFFC0000
00FFFC0000
0000FF0000
0000FF0000
0000FF0000
0000FF0000
0000FF0000
0000FF0000
00003FC000
00003FC000
00000FF000
00000FF000
00003FC000
00003FC000
0000FF0000
0000FF0000
0000FF0000
0000FF0000
0000FF0000
0000FF0000
00FFFC0000
00FFFC0000
00FFF00000
00FFF00000
0000000000
0000000000
0000000000
0000000000
0000000000
0000000000
ENDCHAR
STARTCHAR U+007E
ENCODING 126
SWIDTH 500 0
DWIDTH 36 0
BBX 36 36 0 0
BITMAP
0000000000
0000000000
0000000000
0000000000
00FFC00000
00FFC00000
03FFF00F00
03FFF00F00
0FFFFC3F00
0FFFFC3F00
0FC0FFFF00
0FC0FFFF00
0F003FFC00
0F003FFC00
00000FC000
00000FC000
0000000000
0000000000
0000000000
0000000000
0000000000
0000000000
0000000000
0000000000
0000000000
0000000000
0000000000
0000000000
0000000000
0000000000
0000000000
0000000000
0000000000
0000000000
0000000000
0000000000
ENDCHAR
STARTCHAR U+2302
ENCODING 8962
SWIDTH 500 0
DWIDTH 36 0
BBX 36 36 0 0
BITMAP
0000000000
0000000000
0000000000
0000000000
0000000000
0000000000
0000000000
0000000000
0000F00000
0000F00000
0003FC0000
0003FC0000
000FFF0000
000FFF0000
003FFFC000
003FFFC000
00FF0FF000
00FF0FF000
03FC03FC00
03FC03FC00
0FF000FF00
0FF000FF00
0FF000FF00
0FF000FF00
0FF000FF00
0FF000FF00
0FFFFFFF00
0FFFFFFF00
0FFFFFFF00
0FFFFFFF00
0000000000
0000000000
0000000000
0000000000
0000000000
0000000000
ENDCHAR
STARTCHAR U+00C7
ENCODING 199
SWIDTH 500 0
DWIDTH 36 0
BBX 36 36 0 0
BITMAP
0000000000
0000000000
0000000000
0000000000
003FFFF000
003FFFF000
00FFFFFC00
00FFFFFC00
03FF00FF00
03FF00FF00
03FC003F00
03FC003F00
0FF0000000
0FF0000000
0FF0000000
0FF0000000
0FF0000000
0FF0000000
0FF0000000
0FF0000000
0FF0000000
0FF0000000
03FC003F00
03FC003F00
03FF00FF00
03FF00FF00
00FFFFFC00
00FFFFFC00
003FFFF000
003FFFF000
0000FF0000
0000FF0000
00FFFF0000
00FFFF0000
00FFFF0000
00FFFF0000
ENDCHAR
STARTCHAR U+00FC
ENCODING 252
SWIDTH 500 0
DWIDTH 36 0
BBX 36 36 0 0
BITMAP
03FC03FC00
03FC03FC00
03FC03FC00
03FC03FC00
03FC03FC00
03FC03FC00
03FC03FC00
03FC03FC00
0000000000
0000000000
0000000000
0000000000
03FC03FC00
03FC03FC00
03FC03FC00
03FC03FC00
03FC03FC00
03FC03FC00
03FC03FC00
03FC03FC00
03FC03FC00
03FC03FC00
03FC03FC00
03FC03FC00
03FC03FC00
03FC03FC00
00FFFFFFC0
00FFFFFFC0
003FFC3FC0
003FFC3FC0
0000000000
0000000000
0000000000
0000000000
0000000000
0000000000
ENDCHAR
STARTCHAR U+00E9
ENCODING 233
SWIDTH 500 0
DWIDTH 36 0
BBX 36 36 0 0
BITMAP
0000000000
0000000000
00003FC000
00003FC000
0000FF0000
0000FF0000
0003FC0000
0003FC0000
0000000000
0000000000
0000000000
0000000000
003FFFC000
003FFFC000
00FFFFF000
00FFFFF000
03FC03FC00
03FC03FC00
03FFFFFC00
03FFFFFC00
03FFFFFC00
03FFFFFC00
03FC000000
03FC000000
03FC00FC00
03FC00FC00
00FFFFF000
00FFFFF000
003FFFC000
003FFFC000
0000000000
0000000000
0000000000
0000000000
0000000000
0000000000
ENDCHAR
STARTCHAR U+00E2
ENCODING 226
SWIDTH 500 0
DWIDTH 36 0
BBX 36 36 0 0
BITMAP
0000000000
0000000000
003FFC0000
003FFC0000
00FFFF0000
00FFFF0000
03FC3FC000
03FC3FC000
0000000000
0000000000
0000000000
0000000000
00FFFF0000
00FFFF0000
00FFFFC000
00FFFFC000
00000FF000
00000FF000
00FFFFF000
00FFFFF000
03FFFFF000
03FFFFF000
0FF00FF000
0FF00FF000
0FF00FF000
0FF00FF000
03FFFFFF00
03FFFFFF00
00FFF0FF00
00FFF0FF00
0000000000
0000000000
0000000000
0000000000
0000000000
0000000000
ENDCHAR
STARTCHAR U+00E4
ENCODING 228
SWIDTH 500 0
DWIDTH 36 0
BBX 36 36 0 0
BITMAP
0FF00FF000
0FF00FF000
0FF00FF000
0FF00FF000
0FF00FF000
0FF00FF000
0FF00FF000
0FF00FF000
0000000000
0000000000
0000000000
0000000000
00FFFF0000
00FFFF0000
00FFFFC000
00FFFFC000
00000FF000
00000FF000
00FFFFF000
00FFFFF000
03FFFFF000
03FFFFF000
0FF00FF000
0FF00FF000
0FF00FF000
0FF00FF000
03FFFFFF00
03FFFFFF00
00FFF0FF00
00FFF0FF00
0000000000
0000000000
0000000000
0000000000
0000000000
0000000000
ENDCHAR
STARTCHAR U+00E0
ENCODING 224
SWIDTH 500 0
DWIDTH 36 0
BBX 36 36 0 0
BITMAP
0000000000
0000000000
00FF000000
00FF000000
003FC00000
003FC00000
000FF00000
000FF00000
0000000000
0000000000
0000000000
0000000000
00FFFF0000
00FFFF0000
00FFFFC000
00FFFFC000
00000FF000
00000FF000
00FFFFF000
00FFFFF000
03FFFFF000
03FFFFF000
0FF00FF000
0FF00FF000
0FF00FF000
0FF00FF000
03FFFFFF00
03FFFFFF00
00FFF0FF00
00FFF0FF00
0000000000
0000000000
0000000000
0000000000
0000000000
0000000000
ENDCHAR
STARTCHAR U+00E5
ENCODING 229
SWIDTH 500 0
DWIDTH 36 0
BBX 36 36 0 0
BITMAP
000FFF0000
000FFF0000
003F0FC000
003F0FC000
00FC03F000
00FC03F000
00FC03F000
00FC03F000
003F0FC000
003F0FC000
000FFF0000
000FFF0000
00FFFF0000
00FFFF0000
00FFFFC000
00FFFFC000
00000FF000
00000FF000
00FFFFF000
00FFFFF000
03FFFFF000
03FFFFF000
0FF00FF000
0FF00FF000
0FF00FF000
0FF00FF000
03FFFFFF00
03FFFFFF00
00FFF0FF00
00FFF0FF00
0000000000
0000000000
0000000000
0000000000
0000000000
0000000000
ENDCHAR
STARTCHAR U+00E7
ENCODING 231
SWIDTH 500 0
DWIDTH 36 0
BBX 36 36 0 0
BITMAP
0000000000
0000000000
0000000000
0000000000
0000000000
0000000000
0000000000
0000000000
0000000000
0000000000
0000000000
0000000000
003FFFC000
003FFFC000
00FFFFF000
00FFFFF000
03FC03FC00
03FC03FC00
03FC000000
03FC000000
03FC000000
03FC000000
03FC00FC00
03FC00FC00
03FC03FC00
03FC03FC00
00FFFFF000
00FFFFF000
003FFFC000
003FFFC000
0003FC0000
0003FC0000
0003FC0000
0003FC0000
03FFFC0000
03FFFC0000
ENDCHAR
STARTCHAR U+00EA
ENCODING 234
SWIDTH 500 0
DWIDTH 36 0
BBX 36 36 0 0
BITMAP
0000000000
0000000000
000FFF0000
000FFF0000
003FFFC000
003FFFC000
00FF0FF000
00FF0FF000
0000000000
0000000000
0000000000
0000000000
003FFFC000
003FFFC000
00FFFFF000
00FFFFF000
03FC03FC00
03FC03FC00
03FFFFFC00
03FFFFFC00
03FFFFFC00
03FFFFFC00
03FC000000
03FC000000
03FC00FC00
03FC00FC00
00FFFFF000
00FFFFF000
003FFFC000
003FFFC000
0000000000
0000000000
0000000000
0000000000
0000000000
0000000000
ENDCHAR
STARTCHAR U+00EB
ENCODING 235
SWIDTH 500 0
DWIDTH 36 0
BBX 36 36 0 0
BITMAP
03FC03FC00
03FC03FC00
03FC03FC00
03FC03FC00
03FC03FC00
03FC03FC00
03FC03FC00
03FC03FC00
0000000000
0000000000
0000000000
0000000000
003FFFC000
003FFFC000
00FFFFF000
00FFFFF000
03FC03FC00
03FC03FC00
03FFFFFC00
03FFFFFC00
03FFFFFC00
03FFFFFC00
03FC000000
03FC000000
03FC00FC00
03FC00FC00
00FFFFF000
00FFFFF000
003FFFC000
003FFFC000
0000000000
0000000000
0000000000
0000000000
0000000000
0000000000
ENDCHAR
STARTCHAR U+00E8
ENCODING 232
SWIDTH 500 0
DWIDTH 36 0
BBX 36 36 0 0
BITMAP
003FC00000
003FC00000
000FF00000
000FF00000
0003FC0000
0003FC0000
0000000000
0000000000
0000000000
0000000000
0000000000
0000000000
003FFFC000
003FFFC000
00FFFFF000
00FFFFF000
03FC03FC00
03FC03FC00
03FFFFFC00
03FFFFFC00
03FFFFFC00
03FFFFFC00
03FC000000
03FC000000
03FC00FC00
03FC00FC00
00FFFFF000
00FFFFF000
003FFFC000
003FFFC000
0000000000
0000000000
0000000000
0000000000
0000000000
0000000000
ENDCHAR
STARTCHAR U+00EF
ENCODING 239
SWIDTH 500 0
DWIDTH 36 0
BBX 36 36 0 0
BITMAP
0FF00FF000
0FF00FF000
0FF00FF000
0FF00FF000
0FF00FF000
0FF00FF000
0FF00FF000
0FF00FF000
0000000000
0000000000
0000000000
0000000000
03FFFC0000
03FFFC0000
03FFFC0000
03FFFC0000
0003FC0000
0003FC0000
0003FC0000
0003FC0000
0003FC0000
0003FC0000
0003FC0000
0003FC0000
0003FC0000
0003FC0000
03FFFFFC00
03FFFFFC00
03FFFFFC00
03FFFFFC00
0000000000
0000000000
0000000000
0000000000
0000000000
0000000000
ENDCHAR
STARTCHAR U+00EE
ENCODING 238
SWIDTH 500 0
DWIDTH 36 0
BBX 36 36 0 0
BITMAP
0000000000
0000000000
000FFF0000
000FFF0000
003FFFC000
003FFFC000
00FF0FF000
00FF0FF000
0000000000
0000000000
0000000000
0000000000
03FFFC0000
03FFFC0000
03FFFC0000
03FFFC0000
0003FC0000
0003FC0000
0003FC0000
0003FC0000
0003FC0000
0003FC0000
0003FC0000
0003FC0000
0003FC0000
0003FC0000
03FFFFFC00
03FFFFFC00
03FFFFFC00
03FFFFFC00
0000000000
0000000000
0000000000
0000000000
0000000000
0000000000
ENDCHAR
STARTCHAR U+00EC
ENCODING 236
SWIDTH 500 0
DWIDTH 36 0
BBX 36 36 0 0
BITMAP
0000000000
0000000000
003FC00000
003FC00000
000FF00000
000FF00000
0003FC0000
0003FC0000
0000000000
0000000000
0000000000
0000000000
03FFFC0000
03FFFC0000
03FFFC0000
03FFFC0000
0003FC0000
0003FC0000
0003FC0000
0003FC0000
0003FC0000
0003FC0000
0003FC0000
0003FC0000
0003FC0000
0003FC0000
03FFFFFC00
03FFFFFC00
03FFFFFC00
03FFFFFC00
0000000000
0000000000
0000000000
0000000000
0000000000
0000000000
ENDCHAR
STARTCHAR U+00C4
ENCODING 196
SWIDTH 500 0
DWIDTH 36 0
BBX 36 36 0 0
BITMAP
03FC03FC00
03FC03FC00
03FC03FC00
03FC03FC00
0000000000
0000000000
0000000000
0000000000
0003FC0000
0003FC0000
000FFF0000
000FFF0000
003FFFC000
003FFFC000
00FFFFF000
00FFFFF000
03FC03FC00
03FC03FC00
03FC03FC00
03FC03FC00
03FC03FC00
03FC03FC00
03FFFFFC00
03FFFFFC00
03FC03FC00
03FC03FC00
03FC03FC00
03FC03FC00
03FC03FC00
03FC03FC00
0000000000
0000000000
0000000000
0000000000
0000000000
0000000000
ENDCHAR
STARTCHAR U+00C5
ENCODING 197
SWIDTH 500 0
DWIDTH 36 0
BBX 36 36 0 0
BITMAP
000FFF0000
000FFF0000
003F0FC000
003F0FC000
00FC03F000
00FC03F000
00FC03F000
00FC03F000
003F0FC000
003F0FC000
000FFF0000
000FFF0000
003FFFC000
003FFFC000
00FFFFF000
00FFFFF000
03FC03FC00
03FC03FC00
03FC03FC00
03FC03FC00
03FC03FC00
03FC03FC00
03FFFFFC00
03FFFFFC00
03FC03FC00
03FC03FC00
03FC03FC00
03FC03FC00
03FC03FC00
03FC03FC00
0000000000
0000000000
0000000000
0000000000
0000000000
0000000000
ENDCHAR
STARTCHAR U+00C9
ENCODING 201
SWIDTH 500 0
DWIDTH 36 0
BBX 36 36 0 0
BITMAP
0000000000
0000000000
0000FF0000
0000FF0000
000FF00000
000FF00000
0000000000
0000000000
00FFFFF000
00FFFFF000
00FFFFF000
00FFFFF000
00FC00F000
00FC00F000
00FC003000
00FC003000
00FC030000
00FC030000
00FFFF0000
00FFFF0000
00FC030000
00FC030000
00FC003000
00FC003000
00FC00F000
00FC00F000
00FFFFF000
00FFFFF000
00FFFFF000
00FFFFF000
0000000000
0000000000
0000000000
0000000000
0000000000
0000000000
ENDCHAR
STARTCHAR U+00E6
ENCODING 230
SWIDTH 500 0
DWIDTH 36 0
BBX 36 36 0 0
BITMAP
0000000000
0000000000
0000000000
0000000000
0000000000
0000000000
0000000000
0000000000
0000000000
0000000000
0000000000
0000000000
03FFFFFC00
03FFFFFC00
03FFFFFF00
03FFFFFF00
0003FC0FC0
0003FC0FC0
03FFFFFFC0
03FFFFFFC0
0FFFFFFFC0
0FFFFFFFC0
3FC3FC0000
3FC3FC0000
3FC3FC0FC0
3FC3FC0FC0
3FFF3FFFC0
3FFF3FFFC0
0FFC0FFF00
0FFC0FFF00
0000000000
0000000000
0000000000
0000000000
0000000000
0000000000
ENDCHAR
STARTCHAR U+00C6
ENCODING 198
SWIDTH 500 0
DWIDTH 36 0
BBX 36 36 0 0
BITMAP
0000000000
0000000000
0000000000
0000000000
003FFFFFC0
003FFFFFC0
003FFFFFC0
003FFFFFC0
03FFFFC000
03FFFFC000
03FFFFC000
03FFFFC000
3FC03FC000
3FC03FC000
3FC03FC000
3FC03FC000
3FFFFFFFC0
3FFFFFFFC0
3FC03FC000
3FC03FC000
3FC03FC000
3FC03FC000
3FC03FC000
3FC03FC000
3FC03FC000
3FC03FC000
3FC03FFFC0
3FC03FFFC0
3FC03FFFC0
3FC03FFFC0
0000000000
0000000000
0000000000
0000000000
0000000000
0000000000
ENDCHAR
STARTCHAR U+00F4
ENCODING 244
SWIDTH 500 0
DWIDTH 36 0
BBX 36 36 0 0
BITMAP
0000000000
0000000000
000FFF0000
000FFF0000
003FFFC000
003FFFC000
00FF0FF000
00FF0FF000
0000000000
0000000000
0000000000
0000000000
003FFFC000
003FFFC000
00FFFFF000
00FFFFF000
03FC03FC00
03FC03FC00
03FC03FC00
03FC03FC00
03FC03FC00
03FC03FC00
03FC03FC00
03FC03FC00
03FC03FC00
03FC03FC00
00FFFFF000
00FFFFF000
003FFFC000
003FFFC000
0000000000
0000000000
0000000000
0000000000
0000000000
0000000000
ENDCHAR
STARTCHAR U+00F6
ENCODING 246
SWIDTH 500 0
DWIDTH 36 0
BBX 36 36 0 0
BITMAP
0000000000
0000000000
03FC03FC00
03FC03FC00
03FC03FC00
03FC03FC00
03FC03FC00
03FC03FC00
0000000000
0000000000
0000000000
0000000000
003FFFC000
003FFFC000
00FFFFF000
00FFFFF000
03FC03FC00
03FC03FC00
03FC03FC00
03FC03FC00
03FC03FC00
03FC03FC00
03FC03FC00
03FC03FC00
03FC03FC00
03FC03FC00
00FFFFF000
00FFFFF000
003FFFC000
003FFFC000
0000000000
0000000000
0000000000
0000000000
0000000000
0000000000
ENDCHAR
STARTCHAR U+00F2
ENCODING 242
SWIDTH 500 0
DWIDTH 36 0
BBX 36 36 0 0
BITMAP
0000000000
0000000000
0000000000
0000000000
003FC00000
003FC00000
000FF00000
000FF00000
0003FC0000
0003FC0000
0000000000
0000000000
003FFFC000
003FFFC000
00FFFFF000
00FFFFF000
03FC03FC00
03FC03FC00
03FC03FC00
03FC03FC00
03FC03FC00
03FC03FC00
03FC03FC00
03FC03FC00
03FC03FC00
03FC03FC00
00FFFFF000
00FFFFF000
003FFFC000
003FFFC000
0000000000
0000000000
0000000000
0000000000
0000000000
0000000000
ENDCHAR
STARTCHAR U+00FB
ENCODING 251
SWIDTH 500 0
DWIDTH 36 0
BBX 36 36 0 0
BITMAP
0000000000
0000000000
000FFF0000
000FFF0000
003FFFC000
003FFFC000
00FF0FF000
00FF0FF000
0000000000
0000000000
0000000000
0000000000
03FC03FC00
03FC03FC00
03FC03FC00
03FC03FC00
03FC03FC00
03FC03FC00
03FC03FC00
03FC03FC00
03FC03FC00
03FC03FC00
03FC03FC00
03FC03FC00
03FC03FC00
03FC03FC00
00FFFFF000
00FFFFF000
003FFFC000
003FFFC000
0000000000
0000000000
0000000000
0000000000
0000000000
0000000000
ENDCHAR
STARTCHAR U+00F9
ENCODING 249
SWIDTH 500 0
DWIDTH 36 0
BBX 36 36 0 0
BITMAP
0000000000
0000000000
0000000000
0000000000
003FC00000
003FC00000
000FF00000
000FF00000
0003FC0000
0003FC0000
0000000000
0000000000
03FC03FC00
03FC03FC00
03FC03FC00
03FC03FC00
03FC03FC00
03FC03FC00
03FC03FC00
03FC03FC00
03FC03FC00
03FC03FC00
03FC03FC00
03FC03FC00
03FC03FC00
03FC03FC00
00FFFFF000
00FFFFF000
003FFFC000
003FFFC000
0000000000
0000000000
0000000000
0000000000
0000000000
0000000000
ENDCHAR
STARTCHAR U+00FF
ENCODING 255
SWIDTH 500 0
DWIDTH 36 0
BBX 36 36 0 0
BITMAP
0000000000
0000000000
03FC03FC00
03FC03FC00
03FC03FC00
03FC03FC00
03FC03FC00
03FC03FC00
0000000000
0000000000
0000000000
0000000000
03FC03FC00
03FC03FC00
03FC03FC00
03FC03FC00
03FC03FC00
03FC03FC00
03FC03FC00
03FC03FC00
03FC03FC00
03FC03FC00
00FFFFFC00
00FFFFFC00
003FFFFC00
003FFFFC00
000003FC00
000003FC00
000003FC00
000003FC00
003FFFF000
003FFFF000
003FFFC000
003FFFC000
0000000000
0000000000
ENDCHAR
STARTCHAR U+00D6
ENCODING 214
SWIDTH 500 0
DWIDTH 36 0
BBX 36 36 0 0
BITMAP
0000000000
0000000000
03FC03FC00
03FC03FC00
03FC03FC00
03FC03FC00
0000000000
0000000000
003FFFC000
003FFFC000
00FFFFF000
00FFFFF000
03FC03FC00
03FC03FC00
03FC03FC00
03FC03FC00
03FC03FC00
03FC03FC00
03FC03FC00
03FC03FC00
03FC03FC00
03FC03FC00
03FC03FC00
03FC03FC00
03FC03FC00
03FC03FC00
00FFFFF000
00FFFFF000
003FFFC000
003FFFC000
0000000000
0000000000
0000000000
0000000000
0000000000
0000000000
ENDCHAR
STARTCHAR U+00DC
ENCODING 220
SWIDTH 500 0
DWIDTH 36 0
BBX 36 36 0 0
BITMAP
0000000000
0000000000
03FC03FC00
03FC03FC00
03FC03FC00
03FC03FC00
0000000000
0000000000
03FC03FC00
03FC03FC00
03FC03FC00
03FC03FC00
03FC03FC00
03FC03FC00
03FC03FC00
03FC03FC00
03FC03FC00
03FC03FC00
03FC03FC00
03FC03FC00
03FC03FC00
03FC03FC00
03FC03FC00
03FC03FC00
03FC03FC00
03FC03FC00
00FFFFF000
00FFFFF000
003FFFC000
003FFFC000
0000000000
0000000000
0000000000
0000000000
0000000000
0000000000
ENDCHAR
STARTCHAR U+00A2
ENCODING 162
SWIDTH 500 0
DWIDTH 36 0
BBX 36 36 0 0
BITMAP
0000000000
0000000000
0003FC0000
0003FC0000
0003FC0000
0003FC0000
0003FC0000
0003FC0000
003FFFC000
003FFFC000
00FFFFF000
00FFFFF000
03FC03FC00
03FC03FC00
03FC00FC00
03FC00FC00
03FC000000
03FC000000
03FC00FC00
03FC00FC00
03FC03FC00
03FC03FC00
00FFFFF000
00FFFFF000
003FFFC000
003FFFC000
0003FC0000
0003FC0000
0003FC0000
0003FC0000
0003FC0000
0003FC0000
0003FC0000
0003FC0000
0000000000
0000000000
ENDCHAR
STARTCHAR U+00A3
ENCODING 163
SWIDTH 500 0
DWIDTH 36 0
BBX 36 36 0 0
BITMAP
0000000000
0000000000
0000000000
0000000000
000FFFF000
000FFFF000
003FFFFC00
003FFFFC00
00FF00FF00
00FF00FF00
00FF003F00
00FF003F00
00FF000000
00FF000000
00FF000000
00FF000000
0FFFFFF000
0FFFFFF000
00FF000000
00FF000000
00FF000000
00FF000000
00FF000000
00FF000000
00FC000000
00FC000000
00FC000300
00FC000300
03F0000F00
03F0000F00
0FFFFFFF00
0FFFFFFF00
0FFFFFFF00
0FFFFFFF00
0000000000
0000000000
ENDCHAR
STARTCHAR U+00A5
ENCODING 165
SWIDTH 500 0
DWIDTH 36 0
BBX 36 36 0 0
BITMAP
0000000000
0000000000
0000000000
0000000000
03FC03FC00
03FC03FC00
03FC03FC00
03FC03FC00
03FC03FC00
03FC03FC00
03FC03FC00
03FC03FC00
03FC03FC00
03FC03FC00
03FC03FC00
03FC03FC00
00FFFFF000
00FFFFF000
003FFFC000
003FFFC000
000FFF0000
000FFF0000
03FFFFFC00
03FFFFFC00
0003FC0000
0003FC0000
03FFFFFC00
03FFFFFC00
0003FC0000
0003FC0000
0003FC0000
0003FC0000
0003FC0000
0003FC0000
0000000000
0000000000
ENDCHAR
STARTCHAR U+20A7
ENCODING 8359
SWIDTH 500 0
DWIDTH 36 0
BBX 36 36 0 0
BITMAP
0000000000
0000000000
0000000000
0000000000
3FFFC00000
3FFFC00000
3FFFF00000
3FFFF00000
3C003C0000
3C003C0000
3C003C0000
3C003C0000
3C003C0000
3C003C0000
3FFFF00000
3FFFF00000
3FFFC00000
3FFFC00000
3C003C0000
3C003C0000
3C003C0000
3C003C0000
3C03FFFC00
3C03FFFC00
3C003FC000
3C003FC000
3C003FC0C0
3C003FC0C0
3C003FC3C0
3C003FC3C0
3C000FFF00
3C000FFF00
3C0003FC00
3C0003FC00
0000000000
0000000000
ENDCHAR
STARTCHAR U+0192
ENCODING 402
SWIDTH 500 0
DWIDTH 36 0
BBX 36 36 0 0
BITMAP
0000000000
0000000000
0000000000
0000000000
00003FFC00
00003FFC00
0000FFFF00
0000FFFF00
0003FC3FC0
0003FC3FC0
0003FC3FC0
0003FC3FC0
0003FC0000
0003FC0000
0003FC0000
0003FC0000
03FFFFFC00
03FFFFFC00
03FFFFFC00
03FFFFFC00
0003FC0000
0003FC0000
0003FC0000
0003FC0000
0003FC0000
0003FC0000
3F03FC0000
3F03FC0000
3F03FC0000
3F03FC0000
0FFFF00000
0FFFF00000
03FFC00000
03FFC00000
0000000000
0000000000
ENDCHAR
STARTCHAR U+00E1
ENCODING 225
SWIDTH 500 0
DWIDTH 36 0
BBX 36 36 0 0
BITMAP
0000000000
0000000000
0000FF0000
0000FF0000
0003FC0000
0003FC0000
000FF00000
000FF00000
0000000000
0000000000
0000000000
0000000000
00FFFF0000
00FFFF0000
00FFFFC000
00FFFFC000
00000FF000
00000FF000
00FFFFF000
00FFFFF000
03FFFFF000
03FFFFF000
0FF00FF000
0FF00FF000
0FF00FF000
0FF00FF000
03FFFFFF00
03FFFFFF00
00FFF0FF00
00FFF0FF00
0000000000
0000000000
0000000000
0000000000
0000000000
0000000000
ENDCHAR
STARTCHAR U+00ED
ENCODING 237
SWIDTH 500 0
DWIDTH 36 0
BBX 36 36 0 0
BITMAP
0000000000
0000000000
0003FC0000
0003FC0000
000FF00000
000FF00000
003FC00000
003FC00000
0000000000
0000000000
0000000000
0000000000
03FFFC0000
03FFFC0000
03FFFC0000
03FFFC0000
0003FC0000
0003FC0000
0003FC0000
0003FC0000
0003FC0000
0003FC0000
0003FC0000
0003FC0000
0003FC0000
0003FC0000
03FFFFFC00
03FFFFFC00
03FFFFFC00
03FFFFFC00
0000000000
0000000000
0000000000
0000000000
0000000000
0000000000
ENDCHAR
STARTCHAR U+00F3
ENCODING 243
SWIDTH 500 0
DWIDTH 36 0
BBX 36 36 0 0
BITMAP
0000000000
0000000000
00003FC000
00003FC000
0000FF0000
0000FF0000
0003FC0000
0003FC0000
0000000000
0000000000
0000000000
0000000000
003FFFC000
003FFFC000
00FFFFF000
00FFFFF000
03FC03FC00
03FC03FC00
03FC03FC00
03FC03FC00
03FC03FC00
03FC03FC00
03FC03FC00
03FC03FC00
03FC03FC00
03FC03FC00
00FFFFF000
00FFFFF000
003FFFC000
003FFFC000
0000000000
0000000000
0000000000
0000000000
0000000000
0000000000
ENDCHAR
STARTCHAR U+00FA
ENCODING 250
SWIDTH 500 0
DWIDTH 36 0
BBX 36 36 0 0
BITMAP
0000000000
0000000000
00003FC000
00003FC000
0000FF0000
0000FF0000
0003FC0000
0003FC0000
0000000000
0000000000
0000000000
0000000000
03FC03FC00
03FC03FC00
03FC03FC00
03FC03FC00
03FC03FC00
03FC03FC00
03FC03FC00
03FC03FC00
03FC03FC00
03FC03FC00
03FC03FC00
03FC03FC00
03FC03FC00
03FC03FC00
00FFFFFFC0
00FFFFFFC0
003FFF0FC0
003FFF0FC0
0000000000
0000000000
0000000000
0000000000
0000000000
0000000000
ENDCHAR
STARTCHAR U+00F1
ENCODING 241
SWIDTH 500 0
DWIDTH 36 0
BBX 36 36 0 0
BITMAP
0000000000
0000000000
003FFC0FC0
003FFC0FC0
00FF3F3F00
00FF3F3F00
03FC0FFC00
03FC0FFC00
0000000000
0000000000
0000000000
0000000000
03FFFFC000
03FFFFC000
03FFFFF000
03FFFFF000
03FC03FC00
03FC03FC00
03FC03FC00
03FC03FC00
03FC03FC00
03FC03FC00
03FC03FC00
03FC03FC00
03FC03FC00
03FC03FC00
03FC03FC00
03FC03FC00
03FC03FC00
03FC03FC00
0000000000
0000000000
0000000000
0000000000
0000000000
0000000000
ENDCHAR
STARTCHAR U+00D1
ENCODING 209
SWIDTH 500 0
DWIDTH 36 0
BBX 36 36 0 0
BITMAP
0000000000
0000000000
00FFF03F00
00FFF03F00
03FCFCFC00
03FCFCFC00
0FF03FF000
0FF03FF000
0000000000
0000000000
0FFC00FF00
0FFC00FF00
0FFF00FF00
0FFF00FF00
0FFFC0FF00
0FFFC0FF00
0FF3F0FF00
0FF3F0FF00
0FF0FCFF00
0FF0FCFF00
0FF03FFF00
0FF03FFF00
0FF00FFF00
0FF00FFF00
0FF003FF00
0FF003FF00
0FF000FF00
0FF000FF00
0FF000FF00
0FF000FF00
0000000000
0000000000
0000000000
0000000000
0000000000
0000000000
ENDCHAR
STARTCHAR U+00AA
ENCODING 170
SWIDTH 500 0
DWIDTH 36 0
BBX 36 36 0 0
BITMAP
0000000000
0000000000
0000000000
0000000000
003FFC0000
003FFC0000
003FFF0000
003FFF0000
00000FC000
00000FC000
003FFFC000
003FFFC000
00FFFFC000
00FFFFC000
03FC0FC000
03FC0FC000
00FFFFFC00
00FFFFFC00
0000000000
0000000000
0FFFFFFF00
0FFFFFFF00
0FFFFFFF00
0FFFFFFF00
0000000000
0000000000
0000000000
0000000000
0000000000
0000000000
0000000000
0000000000
0000000000
0000000000
0000000000
0000000000
ENDCHAR
STARTCHAR U+00BA
ENCODING 186
SWIDTH 500 0
DWIDTH 36 0
BBX 36 36 0 0
BITMAP
0000000000
0000000000
0000000000
0000000000
003FFF0000
003FFF0000
00FFFFC000
00FFFFC000
03F003F000
03F003F000
03F003F000
03F003F000
03F003F000
03F003F000
00FFFFC000
00FFFFC000
003FFF0000
003FFF0000
0000000000
0000000000
0FFFFFFF00
0FFFFFFF00
0FFFFFFF00
0FFFFFFF00
0000000000
0000000000
0000000000
0000000000
0000000000
0000000000
0000000000
0000000000
0000000000
0000000000
0000000000
0000000000
ENDCHAR
STARTCHAR U+00BF
ENCODING 191
SWIDTH 500 0
DWIDTH 36 0
BBX 36 36 0 0
BITMAP
0000000000
0000000000
0000000000
0000000000
0003FC0000
0003FC0000
0003FC0000
0003FC0000
0000000000
0000000000
0000000000
0000000000
0003FC0000
0003FC0000
000FF00000
000FF00000
003FC00000
003FC00000
00FC000000
00FC000000
03FC000000
03FC000000
03FC00FC00
03FC00FC00
03FC03FC00
03FC03FC00
00FFFFF000
00FFFFF000
003FFFC000
003FFFC000
0000000000
0000000000
0000000000
0000000000
0000000000
0000000000
ENDCHAR
STARTCHAR U+2310
ENCODING 8976
SWIDTH 500 0
DWIDTH 36 0
BBX 36 36 0 0
BITMAP
0000000000
0000000000
0000000000
0000000000
0000000000
0000000000
0000000000
0000000000
0000000000
0000000000
0000000000
0000000000
03FFFFFC00
03FFFFFC00
03FFFFFC00
03FFFFFC00
03FC000000
03FC000000
03FC000000
03FC000000
03FC000000
03FC000000
03FC000000
03FC000000
03FC000000
03FC000000
0000000000
0000000000
0000000000
0000000000
0000000000
0000000000
0000000000
0000000000
0000000000
0000000000
ENDCHAR
STARTCHAR U+00AC
ENCODING 172
SWIDTH 500 0
DWIDTH 36 0
BBX 36 36 0 0
BITMAP
0000000000
0000000000
0000000000
0000000000
0000000000
0000000000
0000000000
0000000000
0000000000
0000000000
0000000000
0000000000
03FFFFFC00
03FFFFFC00
03FFFFFC00
03FFFFFC00
000003FC00
000003FC00
000003FC00
000003FC00
000003FC00
000003FC00
000003FC00
000003FC00
000003FC00
000003FC00
0000000000
0000000000
0000000000
0000000000
0000000000
0000000000
0000000000
0000000000
0000000000
0000000000
ENDCHAR
STARTCHAR U+00BD
ENCODING 189
SWIDTH 500 0
DWIDTH 36 0
BBX 36 36 0 0
BITMAP
0000000000
0000000000
03C000FC00
03C000FC00
0FC003FC00
0FC003FC00
3FC00FF000
3FC00FF000
03C03FC000
03C03FC000
03C0FF0000
03C0FF0000
03C3FC0000
03C3FC0000
03CFF00000
03CFF00000
003FC00000
003FC00000
00FF0FFF00
00FF0FFF00
03FC3FFFC0
03FC3FFFC0
0FF03C0FC0
0FF03C0FC0
3FC0003F00
3FC0003F00
3F0000FC00
3F0000FC00
3C0003F000
3C0003F000
00000FFFC0
00000FFFC0
00003FFFC0
00003FFFC0
0000000000
0000000000
ENDCHAR
STARTCHAR U+00BC
ENCODING 188
SWIDTH 500 0
DWIDTH 36 0
BBX 36 36 0 0
BITMAP
0000000000
0000000000
00F0003F00
00F0003F00
03F000FF00
03F000FF00
0FF003FC00
0FF003FC00
00F00FF000
00F00FF000
00F03FC000
00F03FC000
00F0FF0000
00F0FF0000
00F3FC0000
00F3FC0000
000FF0FF00
000FF0FF00
003FC3FF00
003FC3FF00
00FF0FFF00
00FF0FFF00
03FC3F3F00
03FC3F3F00
0FF0FC3F00
0FF0FC3F00
0FC3F03F00
0FC3F03F00
0F03FFFF00
0F03FFFF00
0000003F00
0000003F00
0000003F00
0000003F00
0000000000
0000000000
ENDCHAR
STARTCHAR U+00A1
ENCODING 161
SWIDTH 500 0
DWIDTH 36 0
BBX 36 36 0 0
BITMAP
0000000000
0000000000
0000000000
0000000000
0003FC0000
0003FC0000
0003FC0000
0003FC0000
0003FC0000
0003FC0000
0003FC0000
0003FC0000
0000000000
0000000000
0000000000
0000000000
0003FC0000
0003FC0000
0003FC0000
0003FC0000
000FFF0000
000FFF0000
000FFF0000
000FFF0000
000FFF0000
000FFF0000
000FFF0000
000FFF0000
000FFF0000
000FFF0000
0003FC0000
0003FC0000
0000000000
0000000000
0000000000
0000000000
ENDCHAR
STARTCHAR U+00AB
ENCODING 171
SWIDTH 500 0
DWIDTH 36 0
BBX 36 36 0 0
BITMAP
0000000000
0000000000
0000000000
0000000000
0000000000
0000000000
0000000000
0000000000
003FC03FC0
003FC03FC0
00FF00FF00
00FF00FF00
03FC03FC00
03FC03FC00
0FF00FF000
0FF00FF000
3FC03FC000
3FC03FC000
3FC03FC000
3FC03FC000
3FC03FC000
3FC03FC000
0FF00FF000
0FF00FF000
03FC03FC00
03FC03FC00
00FF00FF00
00FF00FF00
003FC03FC0
003FC03FC0
0000000000
0000000000
0000000000
0000000000
0000000000
0000000000
ENDCHAR
STARTCHAR U+00BB
ENCODING 187
SWIDTH 500 0
DWIDTH 36 0
BBX 36 36 0 0
BITMAP
0000000000
0000000000
0000000000
0000000000
0000000000
0000000000
0000000000
0000000000
3FC03FC000
3FC03FC000
0FF00FF000
0FF00FF000
03FC03FC00
03FC03FC00
00FF00FF00
00FF00FF00
003FC03FC0
003FC03FC0
003FC03FC0
003FC03FC0
003FC03FC0
003FC03FC0
00FF00FF00
00FF00FF00
03FC03FC00
03FC03FC00
0FF00FF000
0FF00FF000
3FC03FC000
3FC03FC000
0000000000
0000000000
0000000000
0000000000
0000000000
0000000000
ENDCHAR
STARTCHAR U+2591
ENCODING 9617
SWIDTH 500 0
DWIDTH 36 0
BBX 36 36 0 0
BITMAP
0C0C0C0C00
0C0C0C0C00
C0C0C0C0C0
C0C0C0C0C0
0C0C0C0C00
0C0C0C0C00
C0C0C0C0C0
C0C0C0C0C0
0C0C0C0C00
0C0C0C0C00
C0C0C0C0C0
C0C0C0C0C0
0C0C0C0C00
0C0C0C0C00
C0C0C0C0C0
C0C0C0C0C0
0C0C0C0C00
0C0C0C0C00
C0C0C0C0C0
C0C0C0C0C0
0C0C0C0C00
0C0C0C0C00
C0C0C0C0C0
C0C0C0C0C0
0C0C0C0C00
0C0C0C0C00
C0C0C0C0C0
C0C0C0C0C0
0C0C0C0C00
0C0C0C0C00
C0C0C0C0C0
C0C0C0C0C0
0C0C0C0C00
0C0C0C0C00
C0C0C0C0C0
C0C0C0C0C0
ENDCHAR
STARTCHAR U+2592
ENCODING 9618
SWIDTH 500 0
DWIDTH 36 0
BBX 36 36 0 0
BITMAP
CCCCCCCCC0
CCCCCCCCC0
3333333330
3333333330
CCCCCCCCC0
CCCCCCCCC0
3333333330
3333333330
CCCCCCCCC0
CCCCCCCCC0
3333333330
3333333330
CCCCCCCCC0
CCCCCCCCC0
3333333330
3333333330
CCCCCCCCC0
CCCCCCCCC0
3333333330
3333333330
CCCCCCCCC0
CCCCCCCCC0
3333333330
3333333330
CCCCCCCCC0
CCCCCCCCC0
3333333330
3333333330
CCCCCCCCC0
CCCCCCCCC0
3333333330
3333333330
CCCCCCCCC0
CCCCCCCCC0
3333333330
3333333330
ENDCHAR
STARTCHAR U+2593
ENCODING 9619
SWIDTH 500 0
DWIDTH 36 0
BBX 36 36 0 0
BITMAP
F3F3F3F3F0
F3F3F3F3F0
3F3F3F3F30
3F3F3F3F30
F3F3F3F3F0
F3F3F3F3F0
3F3F3F3F30
3F3F3F3F30
F3F3F3F3F0
F3F3F3F3F0
3F3F3F3F30
3F3F3F3F30
F3F3F3F3F0
F3F3F3F3F0
3F3F3F3F30
3F3F3F3F30
F3F3F3F3F0
F3F3F3F3F0
3F3F3F3F30
3F3F3F3F30
F3F3F3F3F0
F3F3F3F3F0
3F3F3F3F30
3F3F3F3F30
F3F3F3F3F0
F3F3F3F3F0
3F3F3F3F30
3F3F3F3F30
F3F3F3F3F0
F3F3F3F3F0
3F3F3F3F30
3F3F3F3F30
F3F3F3F3F0
F3F3F3F3F0
3F3F3F3F30
3F3F3F3F30
ENDCHAR
STARTCHAR U+2502
ENCODING 9474
SWIDTH 500 0
DWIDTH 36 0
BBX 36 36 0 0
BITMAP
0003FC0000
0003FC0000
0003FC0000
0003FC0000
0003FC0000
0003FC0000
0003FC0000
0003FC0000
0003FC0000
0003FC0000
0003FC0000
0003FC0000
0003FC0000
0003FC0000
0003FC0000
0003FC0000
0003FC0000
0003FC0000
0003FC0000
0003FC0000
0003FC0000
0003FC0000
0003FC0000
0003FC0000
0003FC0000
0003FC0000
0003FC0000
0003FC0000
0003FC0000
0003FC0000
0003FC0000
0003FC0000
0003FC0000
0003FC0000
0003FC0000
0003FC0000
ENDCHAR
STARTCHAR U+2524
ENCODING 9508
SWIDTH 500 0
DWIDTH 36 0
BBX 36 36 0 0
BITMAP
0003FC0000
0003FC0000
0003FC0000
0003FC0000
0003FC0000
0003FC0000
0003FC0000
0003FC0000
0003FC0000
0003FC0000
0003FC0000
0003FC0000
0003FC0000
0003FC0000
FFFFFC0000
FFFFFC0000
FFFFFC0000
FFFFFC0000
FFFFFC0000
FFFFFC0000
FFFFFC0000
FFFFFC0000
0003FC0000
0003FC0000
0003FC0000
0003FC0000
0003FC0000
0003FC0000
0003FC0000
0003FC0000
0003FC0000
0003FC0000
0003FC0000
0003FC0000
0003FC0000
0003FC0000
ENDCHAR
STARTCHAR U+2561
ENCODING 9569
SWIDTH 500 0
DWIDTH 36 0
BBX 36 36 0 0
BITMAP
0003FC0000
0003FC0000
0003FC0000
0003FC0000
0003FC0000
0003FC0000
FFFFFC0000
FFFFFC0000
FFFFFC0000
FFFFFC0000
FFFFFC0000
FFFFFC0000
FFFFFC0000
FFFFFC0000
0003FC0000
0003FC0000
0003FC0000
0003FC0000
0003FC0000
0003FC0000
0003FC0000
0003FC0000
FFFFFC0000
FFFFFC0000
FFFFFC0000
FFFFFC0000
FFFFFC0000
FFFFFC0000
FFFFFC0000
FFFFFC0000
0003FC0000
0003FC0000
0003FC0000
0003FC0000
0003FC0000
0003FC0000
ENDCHAR
STARTCHAR U+2562
ENCODING 9570
SWIDTH 500 0
DWIDTH 36 0
BBX 36 36 0 0
BITMAP
03FC03FC00
03FC03FC00
03FC03FC00
03FC03FC00
03FC03FC00
03FC03FC00
03FC03FC00
03FC03FC00
03FC03FC00
03FC03FC00
03FC03FC00
03FC03FC00
03FC03FC00
03FC03FC00
FFFC03FC00
FFFC03FC00
FFFC03FC00
FFFC03FC00
FFFC03FC00
FFFC03FC00
FFFC03FC00
FFFC03FC00
03FC03FC00
03FC03FC00
03FC03FC00
03FC03FC00
03FC03FC00
03FC03FC00
03FC03FC00
03FC03FC00
03FC03FC00
03FC03FC00
03FC03FC00
03FC03FC00
03FC03FC00
03FC03FC00
ENDCHAR
STARTCHAR U+2556
ENCODING 9558
SWIDTH 500 0
DWIDTH 36 0
BBX 36 36 0 0
BITMAP
0000000000
0000000000
0000000000
0000000000
0000000000
0000000000
0000000000
0000000000
0000000000
0000000000
0000000000
0000000000
0000000000
0000000000
FFFFFFFC00
FFFFFFFC00
FFFFFFFC00
FFFFFFFC00
FFFFFFFC00
FFFFFFFC00
FFFFFFFC00
FFFFFFFC00
03FC03FC00
03FC03FC00
03FC03FC00
03FC03FC00
03FC03FC00
03FC03FC00
03FC03FC00
03FC03FC00
03FC03FC00
03FC03FC00
03FC03FC00
03FC03FC00
03FC03FC00
03FC03FC00
ENDCHAR
STARTCHAR U+2555
ENCODING 9557
SWIDTH 500 0
DWIDTH 36 0
BBX 36 36 0 0
BITMAP
0000000000
0000000000
0000000000
0000000000
0000000000
0000000000
FFFFFC0000
FFFFFC0000
FFFFFC0000
FFFFFC0000
FFFFFC0000
FFFFFC0000
FFFFFC0000
FFFFFC0000
0003FC0000
0003FC0000
0003FC0000
0003FC0000
0003FC0000
0003FC0000
0003FC0000
0003FC0000
FFFFFC0000
FFFFFC0000
FFFFFC0000
FFFFFC0000
FFFFFC0000
FFFFFC0000
FFFFFC0000
FFFFFC0000
0003FC0000
0003FC0000
0003FC0000
0003FC0000
0003FC0000
0003FC0000
ENDCHAR
STARTCHAR U+2563
ENCODING 9571
SWIDTH 500 0
DWIDTH 36 0
BBX 36 36 0 0
BITMAP
03FC03FC00
03FC03FC00
03FC03FC00
03FC03FC00
03FC03FC00
03FC03FC00
FFFC03FC00
FFFC03FC00
FFFC03FC00
FFFC03FC00
FFFC03FC00
FFFC03FC00
FFFC03FC00
FFFC03FC00
000003FC00
000003FC00
000003FC00
000003FC00
000003FC00
000003FC00
000003FC00
000003FC00
FFFC03FC00
FFFC03FC00
FFFC03FC00
FFFC03FC00
FFFC03FC00
FFFC03FC00
FFFC03FC00
FFFC03FC00
03FC03FC00
03FC03FC00
03FC03FC00
03FC03FC00
03FC03FC00
03FC03FC00
ENDCHAR
STARTCHAR U+2551
ENCODING 9553
SWIDTH 500 0
DWIDTH 36 0
BBX 36 36 0 0
BITMAP
03FC03FC00
03FC03FC00
03FC03FC00
03FC03FC00
03FC03FC00
03FC03FC00
03FC03FC00
03FC03FC00
03FC03FC00
03FC03FC00
03FC03FC00
03FC03FC00
03FC03FC00
03FC03FC00
03FC03FC00
03FC03FC00
03FC03FC00
03FC03FC00
03FC03FC00
03FC03FC00
03FC03FC00
03FC03FC00
03FC03FC00
03FC03FC00
03FC03FC00
03FC03FC00
03FC03FC00
03FC03FC00
03FC03FC00
03FC03FC00
03FC03FC00
03FC03FC00
03FC03FC00
03FC03FC00
03FC03FC00
03FC03FC00
ENDCHAR
STARTCHAR U+2557
ENCODING 9559
SWIDTH 500 0
DWIDTH 36 0
BBX 36 36 0 0
BITMAP
0000000000
0000000000
0000000000
0000000000
0000000000
0000000000
FFFFFFFC00
FFFFFFFC00
FFFFFFFC00
FFFFFFFC00
FFFFFFFC00
FFFFFFFC00
FFFFFFFC00
FFFFFFFC00
000003FC00
000003FC00
000003FC00
000003FC00
000003FC00
000003FC00
000003FC00
000003FC00
FFFC03FC00
FFFC03FC00
FFFC03FC00
FFFC03FC00
FFFC03FC00
FFFC03FC00
FFFC03FC00
FFFC03FC00
03FC03FC00
03FC03FC00
03FC03FC00
03FC03FC00
03FC03FC00
03FC03FC00
ENDCHAR
STARTCHAR U+255D
ENCODING 9565
SWIDTH 500 0
DWIDTH 36 0
BBX 36 36 0 0
BITMAP
03FC03FC00
03FC03FC00
03FC03FC00
03FC03FC00
03FC03FC00
03FC03FC00
FFFC03FC00
FFFC03FC00
FFFC03FC00
FFFC03FC00
FFFC03FC00
FFFC03FC00
FFFC03FC00
FFFC03FC00
000003FC00
000003FC00
000003FC00
000003FC00
000003FC00
000003FC00
000003FC00
000003FC00
FFFFFFFC00
FFFFFFFC00
FFFFFFFC00
FFFFFFFC00
FFFFFFFC00
FFFFFFFC00
FFFFFFFC00
FFFFFFFC00
0000000000
0000000000
0000000000
0000000000
0000000000
0000000000
ENDCHAR
STARTCHAR U+255C
ENCODING 9564
SWIDTH 500 0
DWIDTH 36 0
BBX 36 36 0 0
BITMAP
03FC03FC00
03FC03FC00
03FC03FC00
03FC03FC00
03FC03FC00
03FC03FC00
03FC03FC00
03FC03FC00
03FC03FC00
03FC03FC00
03FC03FC00
03FC03FC00
03FC03FC00
03FC03FC00
FFFFFFFC00
FFFFFFFC00
FFFFFFFC00
FFFFFFFC00
FFFFFFFC00
FFFFFFFC00
FFFFFFFC00
FFFFFFFC00
0000000000
0000000000
0000000000
0000000000
0000000000
0000000000
0000000000
0000000000
0000000000
0000000000
0000000000
0000000000
0000000000
0000000000
ENDCHAR
STARTCHAR U+255B
ENCODING 9563
SWIDTH 500 0
DWIDTH 36 0
BBX 36 36 0 0
BITMAP
0003FC0000
0003FC0000
0003FC0000
0003FC0000
0003FC0000
0003FC0000
FFFFFC0000
FFFFFC0000
FFFFFC0000
FFFFFC0000
FFFFFC0000
FFFFFC0000
FFFFFC0000
FFFFFC0000
0003FC0000
0003FC0000
0003FC0000
0003FC0000
0003FC0000
0003FC0000
0003FC0000
0003FC0000
FFFFFC0000
FFFFFC0000
FFFFFC0000
FFFFFC0000
FFFFFC0000
FFFFFC0000
FFFFFC0000
FFFFFC0000
0000000000
0000000000
0000000000
0000000000
0000000000
0000000000
ENDCHAR
STARTCHAR U+2510
ENCODING 9488
SWIDTH 500 0
DWIDTH 36 0
BBX 36 36 0 0
BITMAP
0000000000
0000000000
0000000000
0000000000
0000000000
0000000000
0000000000
0000000000
0000000000
0000000000
0000000000
0000000000
0000000000
0000000000
FFFFFC0000
FFFFFC0000
FFFFFC0000
FFFFFC0000
FFFFFC0000
FFFFFC0000
FFFFFC0000
FFFFFC0000
0003FC0000
0003FC0000
0003FC0000
0003FC0000
0003FC0000
0003FC0000
0003FC0000
0003FC0000
0003FC0000
0003FC0000
0003FC0000
0003FC0000
0003FC0000
0003FC0000
ENDCHAR
STARTCHAR U+2514
ENCODING 9492
SWIDTH 500 0
DWIDTH 36 0
BBX 36 36 0 0
BITMAP
0003FC0000
0003FC0000
0003FC0000
0003FC0000
0003FC0000
0003FC0000
0003FC0000
0003FC0000
0003FC0000
0003FC0000
0003FC0000
0003FC0000
0003FC0000
0003FC0000
0003FFFFF0
0003FFFFF0
0003FFFFF0
0003FFFFF0
0003FFFFF0
0003FFFFF0
0003FFFFF0
0003FFFFF0
0000000000
0000000000
0000000000
0000000000
0000000000
0000000000
0000000000
0000000000
0000000000
0000000000
0000000000
0000000000
0000000000
0000000000
ENDCHAR
STARTCHAR U+2534
ENCODING 9524
SWIDTH 500 0
DWIDTH 36 0
BBX 36 36 0 0
BITMAP
0003FC0000
0003FC0000
0003FC0000
0003FC0000
0003FC0000
0003FC0000
0003FC0000
0003FC0000
0003FC0000
0003FC0000
0003FC0000
0003FC0000
0003FC0000
0003FC0000
FFFFFFFFF0
FFFFFFFFF0
FFFFFFFFF0
FFFFFFFFF0
FFFFFFFFF0
FFFFFFFFF0
FFFFFFFFF0
FFFFFFFFF0
0000000000
0000000000
0000000000
0000000000
0000000000
0000000000
0000000000
0000000000
0000000000
0000000000
0000000000
0000000000
0000000000
0000000000
ENDCHAR
STARTCHAR U+252C
ENCODING 9516
SWIDTH 500 0
DWIDTH 36 0
BBX 36 36 0 0
BITMAP
0000000000
0000000000
0000000000
0000000000
0000000000
0000000000
0000000000
0000000000
0000000000
0000000000
0000000000
0000000000
0000000000
0000000000
FFFFFFFFF0
FFFFFFFFF0
FFFFFFFFF0
FFFFFFFFF0
FFFFFFFFF0
FFFFFFFFF0
FFFFFFFFF0
FFFFFFFFF0
0003FC0000
0003FC0000
0003FC0000
0003FC0000
0003FC0000
0003FC0000
0003FC0000
0003FC0000
0003FC0000
0003FC0000
0003FC0000
0003FC0000
0003FC0000
0003FC0000
ENDCHAR
STARTCHAR U+251C
ENCODING 9500
SWIDTH 500 0
DWIDTH 36 0
BBX 36 36 0 0
BITMAP
0003FC0000
0003FC0000
0003FC0000
0003FC0000
0003FC0000
0003FC0000
0003FC0000
0003FC0000
0003FC0000
0003FC0000
0003FC0000
0003FC0000
0003FC0000
0003FC0000
0003FFFFF0
0003FFFFF0
0003FFFFF0
0003FFFFF0
0003FFFFF0
0003FFFFF0
0003FFFFF0
0003FFFFF0
0003FC0000
0003FC0000
0003FC0000
0003FC0000
0003FC0000
0003FC0000
0003FC0000
0003FC0000
0003FC0000
0003FC0000
0003FC0000
0003FC0000
0003FC0000
0003FC0000
ENDCHAR
STARTCHAR U+2500
ENCODING 9472
SWIDTH 500 0
DWIDTH 36 0
BBX 36 36 0 0
BITMAP
0000000000
0000000000
0000000000
0000000000
0000000000
0000000000
0000000000
0000000000
0000000000
0000000000
0000000000
0000000000
0000000000
0000000000
FFFFFFFFF0
FFFFFFFFF0
FFFFFFFFF0
FFFFFFFFF0
FFFFFFFFF0
FFFFFFFFF0
FFFFFFFFF0
FFFFFFFFF0
0000000000
0000000000
0000000000
0000000000
0000000000
0000000000
0000000000
0000000000
0000000000
0000000000
0000000000
0000000000
0000000000
0000000000
ENDCHAR
STARTCHAR U+253C
ENCODING 9532
SWIDTH 500 0
DWIDTH 36 0
BBX 36 36 0 0
BITMAP
0003FC0000
0003FC0000
0003FC0000
0003FC0000
0003FC0000
0003FC0000
0003FC0000
0003FC0000
0003FC0000
0003FC0000
0003FC0000
0003FC0000
0003FC0000
0003FC0000
FFFFFFFFF0
FFFFFFFFF0
FFFFFFFFF0
FFFFFFFFF0
FFFFFFFFF0
FFFFFFFFF0
FFFFFFFFF0
FFFFFFFFF0
0003FC0000
0003FC0000
0003FC0000
0003FC0000
0003FC0000
0003FC0000
0003FC0000
0003FC0000
0003FC0000
0003FC0000
0003FC0000
0003FC0000
0003FC0000
0003FC0000
ENDCHAR
STARTCHAR U+255E
ENCODING 9566
SWIDTH 500 0
DWIDTH 36 0
BBX 36 36 0 0
BITMAP
0003FC0000
0003FC0000
0003FC0000
0003FC0000
0003FC0000
0003FC0000
0003FFFFF0
0003FFFFF0
0003FFFFF0
0003FFFFF0
0003FFFFF0
0003FFFFF0
0003FFFFF0
0003FFFFF0
0003FC0000
0003FC0000
0003FC0000
0003FC0000
0003FC0000
0003FC0000
0003FC0000
0003FC0000
0003FFFFF0
0003FFFFF0
0003FFFFF0
0003FFFFF0
0003FFFFF0
0003FFFFF0
0003FFFFF0
0003FFFFF0
0003FC0000
0003FC0000
0003FC0000
0003FC0000
0003FC0000
0003FC0000
ENDCHAR
STARTCHAR U+255F
ENCODING 9567
SWIDTH 500 0
DWIDTH 36 0
BBX 36 36 0 0
BITMAP
03FC03FC00
03FC03FC00
03FC03FC00
03FC03FC00
03FC03FC00
03FC03FC00
03FC03FC00
03FC03FC00
03FC03FC00
03FC03FC00
03FC03FC00
03FC03FC00
03FC03FC00
03FC03FC00
03FC03FFF0
03FC03FFF0
03FC03FFF0
03FC03FFF0
03FC03FFF0
03FC03FFF0
03FC03FFF0
03FC03FFF0
03FC03FC00
03FC03FC00
03FC03FC00
03FC03FC00
03FC03FC00
03FC03FC00
03FC03FC00
03FC03FC00
03FC03FC00
03FC03FC00
03FC03FC00
03FC03FC00
03FC03FC00
03FC03FC00
ENDCHAR
STARTCHAR U+255A
ENCODING 9562
SWIDTH 500 0
DWIDTH 36 0
BBX 36 36 0 0
BITMAP
03FC03FC00
03FC03FC00
03FC03FC00
03FC03FC00
03FC03FC00
03FC03FC00
03FC03FFF0
03FC03FFF0
03FC03FFF0
03FC03FFF0
03FC03FFF0
03FC03FFF0
03FC03FFF0
03FC03FFF0
03FC000000
03FC000000
03FC000000
03FC000000
03FC000000
03FC000000
03FC000000
03FC000000
03FFFFFFF0
03FFFFFFF0
03FFFFFFF0
03FFFFFFF0
03FFFFFFF0
03FFFFFFF0
03FFFFFFF0
03FFFFFFF0
0000000000
0000000000
0000000000
0000000000
0000000000
0000000000
ENDCHAR
STARTCHAR U+2554
ENCODING 9556
SWIDTH 500 0
DWIDTH 36 0
BBX 36 36 0 0
BITMAP
0000000000
0000000000
0000000000
0000000000
0000000000
0000000000
03FFFFFFF0
03FFFFFFF0
03FFFFFFF0
03FFFFFFF0
03FFFFFFF0
03FFFFFFF0
03FFFFFFF0
03FFFFFFF0
03FC000000
03FC000000
03FC000000
03FC000000
03FC000000
03FC000000
03FC000000
03FC000000
03FC03FFF0
03FC03FFF0
03FC03FFF0
03FC03FFF0
03FC03FFF0
03FC03FFF0
03FC03FFF0
03FC03FFF0
03FC03FC00
03FC03FC00
03FC03FC00
03FC03FC00
03FC03FC00
03FC03FC00
ENDCHAR
STARTCHAR U+2569
ENCODING 9577
SWIDTH 500 0
DWIDTH 36 0
BBX 36 36 0 0
BITMAP
03FC03FC00
03FC03FC00
03FC03FC00
03FC03FC00
03FC03FC00
03FC03FC00
FFFC03FFF0
FFFC03FFF0
FFFC03FFF0
FFFC03FFF0
FFFC03FFF0
FFFC03FFF0
FFFC03FFF0
FFFC03FFF0
0000000000
0000000000
0000000000
0000000000
0000000000
0000000000
0000000000
0000000000
FFFFFFFFF0
FFFFFFFFF0
FFFFFFFFF0
FFFFFFFFF0
FFFFFFFFF0
FFFFFFFFF0
FFFFFFFFF0
FFFFFFFFF0
0000000000
0000000000
0000000000
0000000000
0000000000
0000000000
ENDCHAR
STARTCHAR U+2566
ENCODING 9574
SWIDTH 500 0
DWIDTH 36 0
BBX 36 36 0 0
BITMAP
0000000000
0000000000
0000000000
0000000000
0000000000
0000000000
FFFFFFFFF0
FFFFFFFFF0
FFFFFFFFF0
FFFFFFFFF0
FFFFFFFFF0
FFFFFFFFF0
FFFFFFFFF0
FFFFFFFFF0
0000000000
0000000000
0000000000
0000000000
0000000000
0000000000
0000000000
0000000000
FFFC03FFF0
FFFC03FFF0
FFFC03FFF0
FFFC03FFF0
FFFC03FFF0
FFFC03FFF0
FFFC03FFF0
FFFC03FFF0
03FC03FC00
03FC03FC00
03FC03FC00
03FC03FC00
03FC03FC00
03FC03FC00
ENDCHAR
STARTCHAR U+2560
ENCODING 9568
SWIDTH 500 0
DWIDTH 36 0
BBX 36 36 0 0
BITMAP
03FC03FC00
03FC03FC00
03FC03FC00
03FC03FC00
03FC03FC00
03FC03FC00
03FC03FFF0
03FC03FFF0
03FC03FFF0
03FC03FFF0
03FC03FFF0
03FC03FFF0
03FC03FFF0
03FC03FFF0
03FC000000
03FC000000
03FC000000
03FC000000
03FC000000
03FC000000
03FC000000
03FC000000
03FC03FFF0
03FC03FFF0
03FC03FFF0
03FC03FFF0
03FC03FFF0
03FC03FFF0
03FC03FFF0
03FC03FFF0
03FC03FC00
03FC03FC00
03FC03FC00
03FC03FC00
03FC03FC00
03FC03FC00
ENDCHAR
STARTCHAR U+2550
ENCODING 9552
SWIDTH 500 0
DWIDTH 36 0
BBX 36 36 0 0
BITMAP
0000000000
0000000000
0000000000
0000000000
0000000000
0000000000
FFFFFFFFF0
FFFFFFFFF0
FFFFFFFFF0
FFFFFFFFF0
FFFFFFFFF0
FFFFFFFFF0
FFFFFFFFF0
FFFFFFFFF0
0000000000
0000000000
0000000000
0000000000
0000000000
0000000000
0000000000
0000000000
FFFFFFFFF0
FFFFFFFFF0
FFFFFFFFF0
FFFFFFFFF0
FFFFFFFFF0
FFFFFFFFF0
FFFFFFFFF0
FFFFFFFFF0
0000000000
0000000000
0000000000
0000000000
0000000000
0000000000
ENDCHAR
STARTCHAR U+256C
ENCODING 9580
SWIDTH 500 0
DWIDTH 36 0
BBX 36 36 0 0
BITMAP
03FC03FC00
03FC03FC00
03FC03FC00
03FC03FC00
03FC03FC00
03FC03FC00
FFFC03FFF0
FFFC03FFF0
FFFC03FFF0
FFFC03FFF0
FFFC03FFF0
FFFC03FFF0
FFFC03FFF0
FFFC03FFF0
0000000000
0000000000
0000000000
0000000000
0000000000
0000000000
0000000000
0000000000
FFFC03FFF0
FFFC03FFF0
FFFC03FFF0
FFFC03FFF0
FFFC03FFF0
FFFC03FFF0
FFFC03FFF0
FFFC03FFF0
03FC03FC00
03FC03FC00
03FC03FC00
03FC03FC00
03FC03FC00
03FC03FC00
ENDCHAR
STARTCHAR U+2567
ENCODING 9575
SWIDTH 500 0
DWIDTH 36 0
BBX 36 36 0 0
BITMAP
0003FC0000
0003FC0000
0003FC0000
0003FC0000
0003FC0000
0003FC0000
FFFFFFFFF0
FFFFFFFFF0
FFFFFFFFF0
FFFFFFFFF0
FFFFFFFFF0
FFFFFFFFF0
FFFFFFFFF0
FFFFFFFFF0
0000000000
0000000000
0000000000
0000000000
0000000000
0000000000
0000000000
0000000000
FFFFFFFFF0
FFFFFFFFF0
FFFFFFFFF0
FFFFFFFFF0
FFFFFFFFF0
FFFFFFFFF0
FFFFFFFFF0
FFFFFFFFF0
0000000000
0000000000
0000000000
0000000000
0000000000
0000000000
ENDCHAR
STARTCHAR U+2568
ENCODING 9576
SWIDTH 500 0
DWIDTH 36 0
BBX 36 36 0 0
BITMAP
03FC03FC00
03FC03FC00
03FC03FC00
03FC03FC00
03FC03FC00
03FC03FC00
03FC03FC00
03FC03FC00
03FC03FC00
03FC03FC00
03FC03FC00
03FC03FC00
03FC03FC00
03FC03FC00
FFFFFFFFF0
FFFFFFFFF0
FFFFFFFFF0
FFFFFFFFF0
FFFFFFFFF0
FFFFFFFFF0
FFFFFFFFF0
FFFFFFFFF0
0000000000
0000000000
0000000000
0000000000
0000000000
0000000000
0000000000
0000000000
0000000000
0000000000
0000000000
0000000000
0000000000
0000000000
ENDCHAR
STARTCHAR U+2564
ENCODING 9572
SWIDTH 500 0
DWIDTH 36 0
BBX 36 36 0 0
BITMAP
0000000000
0000000000
0000000000
0000000000
0000000000
0000000000
FFFFFFFFF0
FFFFFFFFF0
FFFFFFFFF0
FFFFFFFFF0
FFFFFFFFF0
FFFFFFFFF0
FFFFFFFFF0
FFFFFFFFF0
0000000000
0000000000
0000000000
0000000000
0000000000
0000000000
0000000000
0000000000
FFFFFFFFF0
FFFFFFFFF0
FFFFFFFFF0
FFFFFFFFF0
FFFFFFFFF0
FFFFFFFFF0
FFFFFFFFF0
FFFFFFFFF0
0003FC0000
0003FC0000
0003FC0000
0003FC0000
0003FC0000
0003FC0000
ENDCHAR
STARTCHAR U+2565
ENCODING 9573
SWIDTH 500 0
DWIDTH 36 0
BBX 36 36 0 0
BITMAP
0000000000
0000000000
0000000000
0000000000
0000000000
0000000000
0000000000
0000000000
0000000000
0000000000
0000000000
0000000000
0000000000
0000000000
FFFFFFFFF0
FFFFFFFFF0
FFFFFFFFF0
FFFFFFFFF0
FFFFFFFFF0
FFFFFFFFF0
FFFFFFFFF0
FFFFFFFFF0
03FC03FC00
03FC03FC00
03FC03FC00
03FC03FC00
03FC03FC00
03FC03FC00
03FC03FC00
03FC03FC00
03FC03FC00
03FC03FC00
03FC03FC00
03FC03FC00
03FC03FC00
03FC03FC00
ENDCHAR
STARTCHAR U+2559
ENCODING 9561
SWIDTH 500 0
DWIDTH 36 0
BBX 36 36 0 0
BITMAP
03FC03FC00
03FC03FC00
03FC03FC00
03FC03FC00
03FC03FC00
03FC03FC00
03FC03FC00
03FC03FC00
03FC03FC00
03FC03FC00
03FC03FC00
03FC03FC00
03FC03FC00
03FC03FC00
03FFFFFFF0
03FFFFFFF0
03FFFFFFF0
03FFFFFFF0
03FFFFFFF0
03FFFFFFF0
03FFFFFFF0
03FFFFFFF0
0000000000
0000000000
0000000000
0000000000
0000000000
0000000000
0000000000
0000000000
0000000000
0000000000
0000000000
0000000000
0000000000
0000000000
ENDCHAR
STARTCHAR U+2558
ENCODING 9560
SWIDTH 500 0
DWIDTH 36 0
BBX 36 36 0 0
BITMAP
0003FC0000
0003FC0000
0003FC0000
0003FC0000
0003FC0000
0003FC0000
0003FFFFF0
0003FFFFF0
0003FFFFF0
0003FFFFF0
0003FFFFF0
0003FFFFF0
0003FFFFF0
0003FFFFF0
0003FC0000
0003FC0000
0003FC0000
0003FC0000
0003FC0000
0003FC0000
0003FC0000
0003FC0000
0003FFFFF0
0003FFFFF0
0003FFFFF0
0003FFFFF0
0003FFFFF0
0003FFFFF0
0003FFFFF0
0003FFFFF0
0000000000
0000000000
0000000000
0000000000
0000000000
0000000000
ENDCHAR
STARTCHAR U+2552
ENCODING 9554
SWIDTH 500 0
DWIDTH 36 0
BBX 36 36 0 0
BITMAP
0000000000
0000000000
0000000000
0000000000
0000000000
0000000000
0003FFFFF0
0003FFFFF0
0003FFFFF0
0003FFFFF0
0003FFFFF0
0003FFFFF0
0003FFFFF0
0003FFFFF0
0003FC0000
0003FC0000
0003FC0000
0003FC0000
0003FC0000
0003FC0000
0003FC0000
0003FC0000
0003FFFFF0
0003FFFFF0
0003FFFFF0
0003FFFFF0
0003FFFFF0
0003FFFFF0
0003FFFFF0
0003FFFFF0
0003FC0000
0003FC0000
0003FC0000
0003FC0000
0003FC0000
0003FC0000
ENDCHAR
STARTCHAR U+2553
ENCODING 9555
SWIDTH 500 0
DWIDTH 36 0
BBX 36 36 0 0
BITMAP
0000000000
0000000000
0000000000
0000000000
0000000000
0000000000
0000000000
0000000000
0000000000
0000000000
0000000000
0000000000
0000000000
0000000000
03FFFFFFF0
03FFFFFFF0
03FFFFFFF0
03FFFFFFF0
03FFFFFFF0
03FFFFFFF0
03FFFFFFF0
03FFFFFFF0
03FC03FC00
03FC03FC00
03FC03FC00
03FC03FC00
03FC03FC00
03FC03FC00
03FC03FC00
03FC03FC00
03FC03FC00
03FC03FC00
03FC03FC00
03FC03FC00
03FC03FC00
03FC03FC00
ENDCHAR
STARTCHAR U+256B
ENCODING 9579
SWIDTH 500 0
DWIDTH 36 0
BBX 36 36 0 0
BITMAP
03FC03FC00
03FC03FC00
03FC03FC00
03FC03FC00
03FC03FC00
03FC03FC00
03FC03FC00
03FC03FC00
03FC03FC00
03FC03FC00
03FC03FC00
03FC03FC00
03FC03FC00
03FC03FC00
FFFC03FFF0
FFFC03FFF0
FFFC03FFF0
FFFC03FFF0
FFFC03FFF0
FFFC03FFF0
FFFC03FFF0
FFFC03FFF0
03FC03FC00
03FC03FC00
03FC03FC00
03FC03FC00
03FC03FC00
03FC03FC00
03FC03FC00
03FC03FC00
03FC03FC00
03FC03FC00
03FC03FC00
03FC03FC00
03FC03FC00
03FC03FC00
ENDCHAR
STARTCHAR U+256A
ENCODING 9578
SWIDTH 500 0
DWIDTH 36 0
BBX 36 36 0 0
BITMAP
0003FC0000
0003FC0000
0003FC0000
0003FC0000
0003FC0000
0003FC0000
FFFFFFFFF0
FFFFFFFFF0
FFFFFFFFF0
FFFFFFFFF0
FFFFFFFFF0
FFFFFFFFF0
FFFFFFFFF0
FFFFFFFFF0
0000000000
0000000000
0000000000
0000000000
0000000000
0000000000
0000000000
0000000000
FFFFFFFFF0
FFFFFFFFF0
FFFFFFFFF0
FFFFFFFFF0
FFFFFFFFF0
FFFFFFFFF0
FFFFFFFFF0
FFFFFFFFF0
0003FC0000
0003FC0000
0003FC0000
0003FC0000
0003FC0000
0003FC0000
ENDCHAR
STARTCHAR U+2518
ENCODING 9496
SWIDTH 500 0
DWIDTH 36 0
BBX 36 36 0 0
BITMAP
0003FC0000
0003FC0000
0003FC0000
0003FC0000
0003FC0000
0003FC0000
0003FC0000
0003FC0000
0003FC0000
0003FC0000
0003FC0000
0003FC0000
0003FC0000
0003FC0000
FFFFFC0000
FFFFFC0000
FFFFFC0000
FFFFFC0000
FFFFFC0000
FFFFFC0000
FFFFFC0000
FFFFFC0000
0000000000
0000000000
0000000000
0000000000
0000000000
0000000000
0000000000
0000000000
0000000000
0000000000
0000000000
0000000000
0000000000
0000000000
ENDCHAR
STARTCHAR U+250C
ENCODING 9484
SWIDTH 500 0
DWIDTH 36 0
BBX 36 36 0 0
BITMAP
0000000000
0000000000
0000000000
0000000000
0000000000
0000000000
0000000000
0000000000
0000000000
0000000000
0000000000
0000000000
0000000000
0000000000
0003FFFFF0
0003FFFFF0
0003FFFFF0
0003FFFFF0
0003FFFFF0
0003FFFFF0
0003FFFFF0
0003FFFFF0
0003FC0000
0003FC0000
0003FC0000
0003FC0000
0003FC0000
0003FC0000
0003FC0000
0003FC0000
0003FC0000
0003FC0000
0003FC0000
0003FC0000
0003FC0000
0003FC0000
ENDCHAR
STARTCHAR U+2588
ENCODING 9608
SWIDTH 500 0
DWIDTH 36 0
BBX 36 36 0 0
BITMAP
FFFFFFFFF0
FFFFFFFFF0
FFFFFFFFF0
FFFFFFFFF0
FFFFFFFFF0
FFFFFFFFF0
FFFFFFFFF0
FFFFFFFFF0
FFFFFFFFF0
FFFFFFFFF0
FFFFFFFFF0
FFFFFFFFF0
FFFFFFFFF0
FFFFFFFFF0
FFFFFFFFF0
FFFFFFFFF0
FFFFFFFFF0
FFFFFFFFF0
FFFFFFFFF0
FFFFFFFFF0
FFFFFFFFF0
FFFFFFFFF0
FFFFFFFFF0
FFFFFFFFF0
FFFFFFFFF0
FFFFFFFFF0
FFFFFFFFF0
FFFFFFFFF0
FFFFFFFFF0
FFFFFFFFF0
FFFFFFFFF0
FFFFFFFFF0
FFFFFFFFF0
FFFFFFFFF0
FFFFFFFFF0
FFFFFFFFF0
ENDCHAR
STARTCHAR U+2584
ENCODING 9604
SWIDTH 500 0
DWIDTH 36 0
BBX 36 36 0 0
BITMAP
0000000000
0000000000
0000000000
0000000000
0000000000
0000000000
0000000000
0000000000
0000000000
0000000000
0000000000
0000000000
0000000000
0000000000
0000000000
0000000000
0000000000
0000000000
FFFFFFFFF0
FFFFFFFFF0
FFFFFFFFF0
FFFFFFFFF0
FFFFFFFFF0
FFFFFFFFF0
FFFFFFFFF0
FFFFFFFFF0
FFFFFFFFF0
FFFFFFFFF0
FFFFFFFFF0
FFFFFFFFF0
FFFFFFFFF0
FFFFFFFFF0
FFFFFFFFF0
FFFFFFFFF0
FFFFFFFFF0
FFFFFFFFF0
ENDCHAR
STARTCHAR U+258C
ENCODING 9612
SWIDTH 500 0
DWIDTH 36 0
BBX 36 36 0 0
BITMAP
FFFFC00000
FFFFC00000
FFFFC00000
FFFFC00000
FFFFC00000
FFFFC00000
FFFFC00000
FFFFC00000
FFFFC00000
FFFFC00000
FFFFC00000
FFFFC00000
FFFFC00000
FFFFC00000
FFFFC00000
FFFFC00000
FFFFC00000
FFFFC00000
FFFFC00000
FFFFC00000
FFFFC00000
FFFFC00000
FFFFC00000
FFFFC00000
FFFFC00000
FFFFC00000
FFFFC00000
FFFFC00000
FFFFC00000
FFFFC00000
FFFFC00000
FFFFC00000
FFFFC00000
FFFFC00000
FFFFC00000
FFFFC00000
ENDCHAR
STARTCHAR U+2590
ENCODING 9616
SWIDTH 500 0
DWIDTH 36 0
BBX 36 36 0 0
BITMAP
00003FFFF0
00003FFFF0
00003FFFF0
00003FFFF0
00003FFFF0
00003FFFF0
00003FFFF0
00003FFFF0
00003FFFF0
00003FFFF0
00003FFFF0
00003FFFF0
00003FFFF0
00003FFFF0
00003FFFF0
00003FFFF0
00003FFFF0
00003FFFF0
00003FFFF0
00003FFFF0
00003FFFF0
00003FFFF0
00003FFFF0
00003FFFF0
00003FFFF0
00003FFFF0
00003FFFF0
00003FFFF0
00003FFFF0
00003FFFF0
00003FFFF0
00003FFFF0
00003FFFF0
00003FFFF0
00003FFFF0
00003FFFF0
ENDCHAR
STARTCHAR U+2580
ENCODING 9600
SWIDTH 500 0
DWIDTH 36 0
BBX 36 36 0 0
BITMAP
FFFFFFFFF0
FFFFFFFFF0
FFFFFFFFF0
FFFFFFFFF0
FFFFFFFFF0
FFFFFFFFF0
FFFFFFFFF0
FFFFFFFFF0
FFFFFFFFF0
FFFFFFFFF0
FFFFFFFFF0
FFFFFFFFF0
FFFFFFFFF0
FFFFFFFFF0
FFFFFFFFF0
FFFFFFFFF0
FFFFFFFFF0
FFFFFFFFF0
0000000000
0000000000
0000000000
0000000000
0000000000
0000000000
0000000000
0000000000
0000000000
0000000000
0000000000
0000000000
0000000000
0000000000
0000000000
0000000000
0000000000
0000000000
ENDCHAR
STARTCHAR U+03B1
ENCODING 945
SWIDTH 500 0
DWIDTH 36 0
BBX 36 36 0 0
BITMAP
0000000000
0000000000
0000000000
0000000000
0000000000
0000000000
0000000000
0000000000
03FFC3FC00
03FFC3FC00
0FFFF3FC00
0FFFF3FC00
3FC3FFFC00
3FC3FFFC00
3FC3FFC000
3FC3FFC000
3FC03FC000
3FC03FC000
3FC3FFC000
3FC3FFC000
3FC3FFFC00
3FC3FFFC00
0FFFF3FC00
0FFFF3FC00
03FFC3FC00
03FFC3FC00
0000000000
0000000000
0000000000
0000000000
0000000000
0000000000
0000000000
0000000000
0000000000
0000000000
ENDCHAR
STARTCHAR U+00DF
ENCODING 223
SWIDTH 500 0
DWIDTH 36 0
BBX 36 36 0 0
BITMAP
0000000000
0000000000
0000000000
0000000000
003FFFC000
003FFFC000
00FFFFF000
00FFFFF000
03FC03FC00
03FC03FC00
03FC03FC00
03FC03FC00
03FC3FC000
03FC3FC000
03FC03FC00
03FC03FC00
03FC03FC00
03FC03FC00
03FC03FC00
03FC03FC00
03FC03FC00
03FC03FC00
03FFFFF000
03FFFFF000
03FFFFC000
03FFFFC000
03FC000000
03FC000000
03FC000000
03FC000000
00FF000000
00FF000000
003FC00000
003FC00000
0000000000
0000000000
ENDCHAR
STARTCHAR U+0393
ENCODING 915
SWIDTH 500 0
DWIDTH 36 0
BBX 36 36 0 0
BITMAP
0000000000
0000000000
0000000000
0000000000
03FFFFFC00
03FFFFFC00
03FFFFFC00
03FFFFFC00
03FC03FC00
03FC03FC00
03FC03FC00
03FC03FC00
03FC03FC00
03FC03FC00
03FC000000
03FC000000
03FC000000
03FC000000
03FC000000
03FC000000
03FC000000
03FC000000
03FC000000
03FC000000
03FC000000
03FC000000
03FC000000
03FC000000
03FC000000
03FC000000
0000000000
0000000000
0000000000
0000000000
0000000000
0000000000
ENDCHAR
STARTCHAR U+03C0
ENCODING 960
SWIDTH 500 0
DWIDTH 36 0
BBX 36 36 0 0
BITMAP
0000000000
0000000000
0000000000
0000000000
0FFFFFFF00
0FFFFFFF00
0FFFFFFF00
0FFFFFFF00
00FF0FF000
00FF0FF000
00FF0FF000
00FF0FF000
00FF0FF000
00FF0FF000
00FF0FF000
00FF0FF000
00FF0FF000
00FF0FF000
00FF0FF000
00FF0FF000
00FF0FF000
00FF0FF000
00FF0FF000
00FF0FF000
00FF0FF000
00FF0FF000
00FF03FC00
00FF03FC00
00FF00FF00
00FF00FF00
0000000000
0000000000
0000000000
0000000000
0000000000
0000000000
ENDCHAR
STARTCHAR U+03A3
ENCODING 931
SWIDTH 500 0
DWIDTH 36 0
BBX 36 36 0 0
BITMAP
0000000000
0000000000
0000000000
0000000000
03FFFFFC00
03FFFFFC00
03FFFFFC00
03FFFFFC00
03FC00FC00
03FC00FC00
03FC003C00
03FC003C00
00FF000C00
00FF000C00
003FC00000
003FC00000
000FF00000
000FF00000
003FC00000
003FC00000
00FF000C00
00FF000C00
03FC003C00
03FC003C00
03F000FC00
03F000FC00
03FFFFFC00
03FFFFFC00
03FFFFFC00
03FFFFFC00
0000000000
0000000000
0000000000
0000000000
0000000000
0000000000
ENDCHAR
STARTCHAR U+03C3
ENCODING 963
SWIDTH 500 0
DWIDTH 36 0
BBX 36 36 0 0
BITMAP
0000000000
0000000000
0000000000
0000000000
0000000000
0000000000
0000000000
0000000000
0000000000
0000000000
0000000000
0000000000
003FFFFFC0
003FFFFFC0
00FFFFFFC0
00FFFFFFC0
03FC03C000
03FC03C000
03FC03F000
03FC03F000
03FC03FC00
03FC03FC00
03FC03FC00
03FC03FC00
03FC03FC00
03FC03FC00
00FFFFF000
00FFFFF000
003FFFC000
003FFFC000
0000000000
0000000000
0000000000
0000000000
0000000000
0000000000
ENDCHAR
STARTCHAR U+00B5
ENCODING 181
SWIDTH 500 0
DWIDTH 36 0
BBX 36 36 0 0
BITMAP
0000000000
0000000000
0000000000
0000000000
0000000000
0000000000
0000000000
0000000000
0000000000
0000000000
0000000000
0000000000
03FC03FC00
03FC03FC00
03FC03FC00
03FC03FC00
03FC03FC00
03FC03FC00
03FC03FC00
03FC03FC00
03FC03FC00
03FC03FC00
03FC03FC00
03FC03FC00
03FC03FC00
03FC03FC00
03FFFFFFC0
03FFFFFFC0
03FFFC3FC0
03FFFC3FC0
03FC000000
03FC000000
03F0000000
03F0000000
0FC0000000
0FC0000000
ENDCHAR
STARTCHAR U+03C4
ENCODING 964
SWIDTH 500 0
DWIDTH 36 0
BBX 36 36 0 0
BITMAP
0000000000
0000000000
0000000000
0000000000
0000000000
0000000000
0000000000
0000000000
03FFC0FF00
03FFC0FF00
0FFFC3F000
0FFFC3F000
3FC3FFC000
3FC3FFC000
3F03FF0000
3F03FF0000
0003FC0000
0003FC0000
0003FC0000
0003FC0000
0003FC0000
0003FC0000
0003FC0000
0003FC0000
0003FC0000
0003FC0000
0000FFC000
0000FFC000
00003FFC00
00003FFC00
0000000000
0000000000
0000000000
0000000000
0000000000
0000000000
ENDCHAR
STARTCHAR U+03A6
ENCODING 934
SWIDTH 500 0
DWIDTH 36 0
BBX 36 36 0 0
BITMAP
0000000000
0000000000
0000000000
0000000000
03FFFFFC00
03FFFFFC00
03FFFFFC00
03FFFFFC00
0003FC0000
0003FC0000
0003FC0000
0003FC0000
003FFFC000
003FFFC000
00FC03F000
00FC03F000
00FC03F000
00FC03F000
00FC03F000
00FC03F000
003FFFC000
003FFFC000
0003FC0000
0003FC0000
0003FC0000
0003FC0000
03FFFFFC00
03FFFFFC00
03FFFFFC00
03FFFFFC00
0000000000
0000000000
0000000000
0000000000
0000000000
0000000000
ENDCHAR
STARTCHAR U+0398
ENCODING 920
SWIDTH 500 0
DWIDTH 36 0
BBX 36 36 0 0
BITMAP
0000000000
0000000000
0000000000
0000000000
003FFFC000
003FFFC000
00FFFFF000
00FFFFF000
03FC03FC00
03FC03FC00
03FC03FC00
03FC03FC00
03FC03FC00
03FC03FC00
03FC03FC00
03FC03FC00
03FFFFFC00
03FFFFFC00
03FC03FC00
03FC03FC00
03FC03FC00
03FC03FC00
03FC03FC00
03FC03FC00
03FC03FC00
03FC03FC00
00FFFFF000
00FFFFF000
003FFFC000
003FFFC000
0000000000
0000000000
0000000000
0000000000
0000000000
0000000000
ENDCHAR
STARTCHAR U+03A9
ENCODING 937
SWIDTH 500 0
DWIDTH 36 0
BBX 36 36 0 0
BITMAP
0000000000
0000000000
0000000000
0000000000
00FFFFF000
00FFFFF000
03FFFFFC00
03FFFFFC00
0FF000FF00
0FF000FF00
0FF000FF00
0FF000FF00
0FF000FF00
0FF000FF00
0FF000FF00
0FF000FF00
0FF000FF00
0FF000FF00
03FC03FC00
03FC03FC00
00FF0FF000
00FF0FF000
00FF0FF000
00FF0FF000
00FF0FF000
00FF0FF000
0FFF0FFF00
0FFF0FFF00
0FFF0FFF00
0FFF0FFF00
0000000000
0000000000
0000000000
0000000000
0000000000
0000000000
ENDCHAR
STARTCHAR U+03B4
ENCODING 948
SWIDTH 500 0
DWIDTH 36 0
BBX 36 36 0 0
BITMAP
0000000000
0000000000
0000000000
0000000000
0003FFFC00
0003FFFC00
000FFFFC00
000FFFFC00
003FC00000
003FC00000
000FF00000
000FF00000
003FFFC000
003FFFC000
00FFFFF000
00FFFFF000
03FC03FC00
03FC03FC00
03FC03FC00
03FC03FC00
03FC03FC00
03FC03FC00
03FC03FC00
03FC03FC00
03FC03FC00
03FC03FC00
00FFFFF000
00FFFFF000
003FFFC000
003FFFC000
0000000000
0000000000
0000000000
0000000000
0000000000
0000000000
ENDCHAR
STARTCHAR U+221E
ENCODING 8734
SWIDTH 500 0
DWIDTH 36 0
BBX 36 36 0 0
BITMAP
0000000000
0000000000
0000000000
0000000000
0000000000
0000000000
0000000000
0000000000
0000000000
0000000000
03FFC3FC00
03FFC3FC00
0FFFCFFF00
0FFFCFFF00
3FC3FC3FC0
3FC3FC3FC0
3FC3FC3FC0
3FC3FC3FC0
3FC3FC3FC0
3FC3FC3FC0
0FFF3FFF00
0FFF3FFF00
03FC3FFC00
03FC3FFC00
0000000000
0000000000
0000000000
0000000000
0000000000
0000000000
0000000000
0000000000
0000000000
0000000000
0000000000
0000000000
ENDCHAR
STARTCHAR U+03C6
ENCODING 966
SWIDTH 500 0
DWIDTH 36 0
BBX 36 36 0 0
BITMAP
0000000000
0000000000
0000000000
0000000000
0000000300
0000000300
0000000C00
0000000C00
000FFFF000
000FFFF000
003FFFF000
003FFFF000
00F00FF000
00F00FF000
00F03CF000
00F03CF000
00F0F0F000
00F0F0F000
00F3C0F000
00F3C0F000
00FF00F000
00FF00F000
00FFFFC000
00FFFFC000
00FFFF0000
00FFFF0000
0300000000
0300000000
0C00000000
0C00000000
0000000000
0000000000
0000000000
0000000000
0000000000
0000000000
ENDCHAR
STARTCHAR U+03B5
ENCODING 949
SWIDTH 500 0
DWIDTH 36 0
BBX 36 36 0 0
BITMAP
0000000000
0000000000
0000000000
0000000000
0003FFFC00
0003FFFC00
000FFFFC00
000FFFFC00
003FC00000
003FC00000
00FF000000
00FF000000
03FC000000
03FC000000
03FC000000
03FC000000
03FFFFFC00
03FFFFFC00
03FC000000
03FC000000
03FC000000
03FC000000
00FF000000
00FF000000
003FC00000
003FC00000
000FFFFC00
000FFFFC00
0003FFFC00
0003FFFC00
0000000000
0000000000
0000000000
0000000000
0000000000
0000000000
ENDCHAR
STARTCHAR U+2229
ENCODING 8745
SWIDTH 500 0
DWIDTH 36 0
BBX 36 36 0 0
BITMAP
0000000000
0000000000
0000000000
0000000000
003FFFC000
003FFFC000
00FFFFF000
00FFFFF000
03FC03FC00
03FC03FC00
03FC03FC00
03FC03FC00
03FC03FC00
03FC03FC00
03FC03FC00
03FC03FC00
03FC03FC00
03FC03FC00
03FC03FC00
03FC03FC00
03FC03FC00
03FC03FC00
03FC03FC00
03FC03FC00
03FC03FC00
03FC03FC00
03FC03FC00
03FC03FC00
03FC03FC00
03FC03FC00
0000000000
0000000000
0000000000
0000000000
0000000000
0000000000
ENDCHAR
STARTCHAR U+2261
ENCODING 8801
SWIDTH 500 0
DWIDTH 36 0
BBX 36 36 0 0
BITMAP
0000000000
0000000000
0000000000
0000000000
0000000000
0000000000
03FFFFFC00
03FFFFFC00
03FFFFFC00
03FFFFFC00
0000000000
0000000000
0000000000
0000000000
0000000000
0000000000
03FFFFFC00
03FFFFFC00
03FFFFFC00
03FFFFFC00
0000000000
0000000000
0000000000
0000000000
0000000000
0000000000
03FFFFFC00
03FFFFFC00
03FFFFFC00
03FFFFFC00
0000000000
0000000000
0000000000
0000000000
0000000000
0000000000
ENDCHAR
STARTCHAR U+00B1
ENCODING 177
SWIDTH 500 0
DWIDTH 36 0
BBX 36 36 0 0
BITMAP
0000000000
0000000000
0000000000
0000000000
0003FC0000
0003FC0000
0003FC0000
0003FC0000
0003FC0000
0003FC0000
0003FC0000
0003FC0000
03FFFFFC00
03FFFFFC00
03FFFFFC00
03FFFFFC00
0003FC0000
0003FC0000
0003FC0000
0003FC0000
0003FC0000
0003FC0000
0003FC0000
0003FC0000
0000000000
0000000000
0000000000
0000000000
03FFFFFC00
03FFFFFC00
03FFFFFC00
03FFFFFC00
0000000000
0000000000
0000000000
0000000000
ENDCHAR
STARTCHAR U+2265
ENCODING 8805
SWIDTH 500 0
DWIDTH 36 0
BBX 36 36 0 0
BITMAP
0000000000
0000000000
0000000000
0000000000
003FC00000
003FC00000
000FF00000
000FF00000
0003FC0000
0003FC0000
0000FF0000
0000FF0000
00003FC000
00003FC000
00003FC000
00003FC000
0000FF0000
0000FF0000
0003FC0000
0003FC0000
000FF00000
000FF00000
003FC00000
003FC00000
0000000000
0000000000
0000000000
0000000000
03FFFFFC00
03FFFFFC00
03FFFFFC00
03FFFFFC00
0000000000
0000000000
0000000000
0000000000
ENDCHAR
STARTCHAR U+2264
ENCODING 8804
SWIDTH 500 0
DWIDTH 36 0
BBX 36 36 0 0
BITMAP
0000000000
0000000000
0000000000
0000000000
00003FC000
00003FC000
0000FF0000
0000FF0000
0003FC0000
0003FC0000
000FF00000
000FF00000
003FC00000
003FC00000
003FC00000
003FC00000
000FF00000
000FF00000
0003FC0000
0003FC0000
0000FF0000
0000FF0000
00003FC000
00003FC000
0000000000
0000000000
0000000000
0000000000
03FFFFFC00
03FFFFFC00
03FFFFFC00
03FFFFFC00
0000000000
0000000000
0000000000
0000000000
ENDCHAR
STARTCHAR U+2320
ENCODING 8992
SWIDTH 500 0
DWIDTH 36 0
BBX 36 36 0 0
BITMAP
0000000000
0000000000
0000000000
0000000000
0003FFC000
0003FFC000
000FFFF000
000FFFF000
003FC3FC00
003FC3FC00
003FC3FC00
003FC3FC00
003FC3FC00
003FC3FC00
003FC3FC00
003FC3FC00
003FC00000
003FC00000
003FC00000
003FC00000
003FC00000
003FC00000
003FC00000
003FC00000
003FC00000
003FC00000
003FC00000
003FC00000
003FC00000
003FC00000
003FC00000
003FC00000
003FC00000
003FC00000
003FC00000
003FC00000
ENDCHAR
STARTCHAR U+2321
ENCODING 8993
SWIDTH 500 0
DWIDTH 36 0
BBX 36 36 0 0
BITMAP
00003FC000
00003FC000
00003FC000
00003FC000
00003FC000
00003FC000
00003FC000
00003FC000
00003FC000
00003FC000
00003FC000
00003FC000
00003FC000
00003FC000
00003FC000
00003FC000
00003FC000
00003FC000
00003FC000
00003FC000
03FC3FC000
03FC3FC000
03FC3FC000
03FC3FC000
03FC3FC000
03FC3FC000
03FC3FC000
03FC3FC000
00FFFF0000
00FFFF0000
003FFC0000
003FFC0000
0000000000
0000000000
0000000000
0000000000
ENDCHAR
STARTCHAR U+00F7
ENCODING 247
SWIDTH 500 0
DWIDTH 36 0
BBX 36 36 0 0
BITMAP
0000000000
0000000000
0000000000
0000000000
0003FC0000
0003FC0000
0003FC0000
0003FC0000
0003FC0000
0003FC0000
0003FC0000
0003FC0000
0000000000
0000000000
0000000000
0000000000
03FFFFFC00
03FFFFFC00
03FFFFFC00
03FFFFFC00
0000000000
0000000000
0000000000
0000000000
0003FC0000
0003FC0000
0003FC0000
0003FC0000
0003FC0000
0003FC0000
0003FC0000
0003FC0000
0000000000
0000000000
0000000000
0000000000
ENDCHAR
STARTCHAR U+2248
ENCODING 8776
SWIDTH 500 0
DWIDTH 36 0
BBX 36 36 0 0
BITMAP
0000000000
0000000000
0000000000
0000000000
00FFC00000
00FFC00000
03FFF00F00
03FFF00F00
0FFFFC3F00
0FFFFC3F00
0FC0FFFF00
0FC0FFFF00
0F003FFC00
0F003FFC00
00000FC000
00000FC000
0000000000
0000000000
00FF000000
00FF000000
03FFC00F00
03FFC00F00
0FFFF03F00
0FFFF03F00
0FC3FFFF00
0FC3FFFF00
0F00FFFC00
0F00FFFC00
00003FC000
00003FC000
0000000000
0000000000
0000000000
0000000000
0000000000
0000000000
ENDCHAR
STARTCHAR U+00B0
ENCODING 176
SWIDTH 500 0
DWIDTH 36 0
BBX 36 36 0 0
BITMAP
0000000000
0000000000
0000000000
0000000000
000FFC0000
000FFC0000
003FFF0000
003FFF0000
00FC0FC000
00FC0FC000
00F003C000
00F003C000
00F003C000
00F003C000
00FC0FC000
00FC0FC000
003FFF0000
003FFF0000
000FFC0000
000FFC0000
0000000000
0000000000
0000000000
0000000000
0000000000
0000000000
0000000000
0000000000
0000000000
0000000000
0000000000
0000000000
0000000000
0000000000
0000000000
0000000000
ENDCHAR
STARTCHAR U+2219
ENCODING 8729
SWIDTH 500 0
DWIDTH 36 0
BBX 36 36 0 0
BITMAP
0000000000
0000000000
0000000000
0000000000
0000000000
0000000000
0000000000
0000000000
0000000000
0000000000
0000000000
0000000000
0000000000
0000000000
0003FC0000
0003FC0000
0003FC0000
0003FC0000
0003FC0000
0003FC0000
0003FC0000
0003FC0000
0000000000
0000000000
0000000000
0000000000
0000000000
0000000000
0000000000
0000000000
0000000000
0000000000
0000000000
0000000000
0000000000
0000000000
ENDCHAR
STARTCHAR U+00B7
ENCODING 183
SWIDTH 500 0
DWIDTH 36 0
BBX 36 36 0 0
BITMAP
0000000000
0000000000
0000000000
0000000000
0000000000
0000000000
0000000000
0000000000
0000000000
0000000000
0000000000
0000000000
0000000000
0000000000
0000000000
0000000000
0000000000
0000000000
0003FC0000
0003FC0000
0003FC0000
0003FC0000
0000000000
0000000000
0000000000
0000000000
0000000000
0000000000
0000000000
0000000000
0000000000
0000000000
0000000000
0000000000
0000000000
0000000000
ENDCHAR
STARTCHAR U+221A
ENCODING 8730
SWIDTH 500 0
DWIDTH 36 0
BBX 36 36 0 0
BITMAP
0000000000
0000000000
0000000000
0000000000
00000FFF00
00000FFF00
00000FFF00
00000FFF00
00000F0000
00000F0000
00000F0000
00000F0000
00000F0000
00000F0000
00000F0000
00000F0000
0FC00F0000
0FC00F0000
03FC0F0000
03FC0F0000
00FF0F0000
00FF0F0000
003FFF0000
003FFF0000
000FFF0000
000FFF0000
0003FF0000
0003FF0000
0000FF0000
0000FF0000
0000000000
0000000000
0000000000
0000000000
0000000000
0000000000
ENDCHAR
STARTCHAR U+207F
ENCODING 8319
SWIDTH 500 0
DWIDTH 36 0
BBX 36 36 0 0
BITMAP
0000000000
0000000000
0000000000
0000000000
03FC3FC000
03FC3FC000
03FFFFF000
03FFFFF000
003FC3FC00
003FC3FC00
003FC3FC00
003FC3FC00
003FC3FC00
003FC3FC00
003FC3FC00
003FC3FC00
003FC3FC00
003FC3FC00
0000000000
0000000000
0000000000
0000000000
0000000000
0000000000
0000000000
0000000000
0000000000
0000000000
0000000000
0000000000
0000000000
0000000000
0000000000
0000000000
0000000000
0000000000
ENDCHAR
STARTCHAR U+00B2
ENCODING 178
SWIDTH 500 0
DWIDTH 36 0
BBX 36 36 0 0
BITMAP
0000000000
0000000000
0000000000
0000000000
003FFC0000
003FFC0000
003FFF0000
003FFF0000
0000FF0000
0000FF0000
0003FC0000
0003FC0000
000FF00000
000FF00000
003FFFC000
003FFFC000
003FFFC000
003FFFC000
0000000000
0000000000
0000000000
0000000000
0000000000
0000000000
0000000000
0000000000
0000000000
0000000000
0000000000
0000000000
0000000000
0000000000
0000000000
0000000000
0000000000
0000000000
ENDCHAR
STARTCHAR U+25A0
ENCODING 9632
SWIDTH 500 0
DWIDTH 36 0
BBX 36 36 0 0
BITMAP
0000000000
0000000000
0000000000
0000000000
0000000000
0000000000
03FFFFFC00
03FFFFFC00
03FFFFFC00
03FFFFFC00
03FFFFFC00
03FFFFFC00
03FFFFFC00
03FFFFFC00
03FFFFFC00
03FFFFFC00
03FFFFFC00
03FFFFFC00
03FFFFFC00
03FFFFFC00
03FFFFFC00
03FFFFFC00
03FFFFFC00
03FFFFFC00
03FFFFFC00
03FFFFFC00
03FFFFFC00
03FFFFFC00
03FFFFFC00
03FFFFFC00
0000000000
0000000000
0000000000
0000000000
0000000000
0000000000
ENDCHAR
STARTCHAR U+00FF
ENCODING 255
SWIDTH 500 0
DWIDTH 36 0
BBX 36 36 0 0
BITMAP
0000000000
0000000000
0000000000
0000000000
0000000000
0000000000
03FFFFFC00
03FFFFFC00
03FFFFFC00
03FFFFFC00
03C0003C00
03C0003C00
03C0003C00
03C0003C00
03C0003C00
03C0003C00
03C0003C00
03C0003C00
03C0003C00
03C0003C00
03C0003C00
03C0003C00
03C0003C00
03C0003C00
03C0003C00
03C0003C00
03FFFFFC00
03FFFFFC00
03FFFFFC00
03FFFFFC00
0000000000
0000000000
0000000000
0000000000
0000000000
0000000000
ENDCHAR
ENDFONT
